<?xml version="1.0" encoding="UTF-8"?>
<svg id="Layer_2" data-name="Layer 2" xmlns="http://www.w3.org/2000/svg" xmlns:xlink="http://www.w3.org/1999/xlink" viewBox="0 0 174.72 181.44">
  <defs>
    <style>
      .cls-1 {
        letter-spacing: 0em;
      }

      .cls-2 {
        clip-path: url(#clippath-7);
      }

      .cls-3 {
        letter-spacing: -.02em;
      }

      .cls-4 {
        letter-spacing: -.01em;
      }

      .cls-5 {
        clip-path: url(#clippath-4);
      }

      .cls-6 {
        stroke-miterlimit: 8;
      }

      .cls-6, .cls-7, .cls-8, .cls-9, .cls-10 {
        fill: none;
      }

      .cls-6, .cls-8, .cls-9, .cls-10 {
        stroke: #000;
      }

      .cls-6, .cls-9 {
        stroke-linecap: round;
      }

      .cls-11 {
        letter-spacing: .02em;
      }

      .cls-12 {
        letter-spacing: 0em;
      }

      .cls-13 {
        letter-spacing: 0em;
      }

      .cls-14 {
        letter-spacing: 0em;
      }

      .cls-15 {
        letter-spacing: -.02em;
      }

      .cls-16, .cls-17 {
        fill: #fff;
      }

      .cls-17, .cls-18 {
        fill-rule: evenodd;
      }

      .cls-19 {
        letter-spacing: .02em;
      }

      .cls-20 {
        letter-spacing: .02em;
      }

      .cls-8 {
        stroke-width: .5px;
      }

      .cls-8, .cls-9, .cls-10 {
        stroke-linejoin: round;
      }

      .cls-21 {
        letter-spacing: .02em;
      }

      .cls-22 {
        letter-spacing: 0em;
      }

      .cls-23 {
        letter-spacing: 0em;
      }

      .cls-24 {
        clip-path: url(#clippath-5);
      }

      .cls-25 {
        clip-path: url(#clippath-8);
      }

      .cls-26 {
        clip-path: url(#clippath-3);
      }

      .cls-27 {
        letter-spacing: .01em;
      }

      .cls-28 {
        letter-spacing: 0em;
      }

      .cls-29 {
        letter-spacing: 0em;
      }

      .cls-30 {
        letter-spacing: 0em;
      }

      .cls-31 {
        clip-path: url(#clippath-2);
      }

      .cls-32 {
        letter-spacing: 0em;
      }

      .cls-33 {
        letter-spacing: 0em;
      }

      .cls-34 {
        clip-path: url(#clippath);
      }

      .cls-35 {
        font-family: Inter-SemiBold, Inter;
        font-size: 7px;
        font-variation-settings: 'wght' 600, 'slnt' 0;
        font-weight: 600;
      }

      .cls-36 {
        letter-spacing: 0em;
      }

      .cls-37 {
        font-family: ArialMT, Arial;
        font-size: 6.96px;
      }
    </style>
    <clipPath id="clippath">
      <rect class="cls-7" x="3.96" y="16.56" width="7.56" height="84.84"/>
    </clipPath>
    <clipPath id="clippath-2">
      <rect class="cls-7" x="3.96" y="16.56" width="7.56" height="84.84"/>
    </clipPath>
    <clipPath id="clippath-3">
      <rect class="cls-7" y="122.4" width="7.68" height="37.44"/>
    </clipPath>
    <clipPath id="clippath-4">
      <rect class="cls-7" y="122.4" width="7.68" height="37.44"/>
    </clipPath>
    <clipPath id="clippath-5">
      <rect class="cls-7" x="88.8" width="85.92" height="10.44"/>
    </clipPath>
    <clipPath id="clippath-7">
      <rect class="cls-7" x="40.92" y="168.24" width="67.44" height="7.44"/>
    </clipPath>
    <clipPath id="clippath-8">
      <rect class="cls-7" x="40.92" y="168.24" width="67.44" height="7.44"/>
    </clipPath>
  </defs>
  <g id="Layer_1-2" data-name="Layer 1">
    <g>
      <g>
        <path class="cls-17" d="M74.8,8.14c-27.45,0-49.7,22.75-49.7,50.83s22.25,50.82,49.7,50.82,49.7-22.75,49.7-50.82S102.25,8.14,74.8,8.14"/>
        <ellipse class="cls-9" cx="74.8" cy="58.96" rx="49.7" ry="50.83"/>
        <path class="cls-17" d="M74.77,14.24c-24.15,0-43.73,20.01-43.73,44.7s19.57,44.7,43.73,44.7,43.72-20.01,43.72-44.7S98.92,14.24,74.77,14.24"/>
        <ellipse class="cls-9" cx="74.77" cy="58.94" rx="43.73" ry="44.7"/>
        <path class="cls-17" d="M48.16,43.31c5.47-9.74,15.62-15.75,26.62-15.75s21.14,6,26.61,15.75l11.3-6.64c-7.8-13.88-22.26-22.43-37.92-22.43s-30.12,8.56-37.92,22.43l11.3,6.64Z"/>
        <path class="cls-6" d="M48.16,43.31c5.47-9.74,15.62-15.75,26.62-15.75s21.14,6,26.61,15.75l11.3-6.64c-7.8-13.88-22.26-22.43-37.92-22.43s-30.12,8.56-37.92,22.43l11.3,6.64Z"/>
      </g>
      <polygon class="cls-17" points="115.85 140.64 116.16 157.99 120.54 157.99 120.85 140.64 115.85 140.64"/>
      <polygon class="cls-6" points="115.85 140.64 116.16 157.99 120.54 157.99 120.85 140.64 115.85 140.64"/>
      <polygon class="cls-17" points="28.75 140.64 29.06 157.99 33.43 157.99 33.75 140.64 28.75 140.64"/>
      <polygon class="cls-6" points="28.75 140.64 29.06 157.99 33.43 157.99 33.75 140.64 28.75 140.64"/>
      <rect class="cls-16" x="33.25" y="131.24" width="83.05" height="18.5"/>
      <rect class="cls-6" x="33.25" y="131.24" width="83.05" height="18.5"/>
      <polygon class="cls-17" points="25.1 131.49 31.37 129.89 118.23 129.89 124.5 131.49 25.1 131.49"/>
      <polygon class="cls-6" points="25.1 131.49 31.37 129.89 118.23 129.89 124.5 131.49 25.1 131.49"/>
      <line class="cls-8" x1="60.3" y1="8.14" x2="10.6" y2="8.19"/>
      <line class="cls-8" x1="60.3" y1="109.79" x2="10.6" y2="109.84"/>
      <line class="cls-10" x1="13" y1="16.94" x2="13.05" y2="100.74"/>
      <polygon class="cls-18" points="15.05 99.74 13.05 109.74 11.05 99.74 15.05 99.74"/>
      <polygon class="cls-18" points="11.01 17.94 13 7.94 15.01 17.94 11.01 17.94"/>
      <g class="cls-34">
        <text class="cls-35" transform="translate(10.68 64.68) rotate(-90)"><tspan class="cls-1" x="0" y="0">2</tspan><tspan x="4.32" y="0">30</tspan></text>
      </g>
      <g class="cls-31">
        <text class="cls-37" transform="translate(10.68 53.04) rotate(-90)"><tspan x="0" y="0"> </tspan></text>
      </g>
      <line class="cls-8" x1="21.05" y1="131.74" x2="1.1" y2="131.79"/>
      <line class="cls-8" x1="31.2" y1="149.74" x2="1.1" y2="149.79"/>
      <line class="cls-10" x1="3.75" y1="113.99" x2="3.77" y2="122.84"/>
      <polygon class="cls-18" points="5.77 121.83 3.8 131.84 1.77 121.85 5.77 121.83"/>
      <line class="cls-10" x1="3.75" y1="167.49" x2="3.77" y2="158.64"/>
      <polygon class="cls-18" points="1.77 159.63 3.8 149.64 5.77 159.65 1.77 159.63"/>
      <g class="cls-26">
        <text class="cls-35" transform="translate(6.72 144.96) rotate(-90)"><tspan class="cls-1" x="0" y="0">4</tspan><tspan x="4.63" y="0">5</tspan></text>
      </g>
      <g class="cls-5">
        <text class="cls-37" transform="translate(6.72 137.16) rotate(-90)"><tspan x="0" y="0"> </tspan></text>
      </g>
      <g class="cls-24">
        <text class="cls-35" transform="translate(102.6 7.56)"><tspan class="cls-22" x="0" y="0">D</tspan><tspan class="cls-4" x="5.04" y="0">i</tspan><tspan class="cls-19" x="6.77" y="0">m</tspan><tspan class="cls-1" x="13.17" y="0">en</tspan><tspan class="cls-36" x="21.53" y="0">s</tspan><tspan class="cls-14" x="25.43" y="0">i</tspan><tspan class="cls-1" x="27.26" y="0">o</tspan><tspan class="cls-3" x="31.48" y="0">n</tspan><tspan class="cls-30" x="35.63" y="0">s</tspan><tspan class="cls-33" x="39.52" y="0"> </tspan><tspan class="cls-12" x="41.29" y="0">i</tspan><tspan class="cls-15" x="43.12" y="0">n</tspan><tspan class="cls-32" x="47.26" y="0"> </tspan><tspan class="cls-23" x="48.95" y="0">m</tspan><tspan x="55.24" y="0">m</tspan></text>
      </g>
      <line class="cls-8" x1="32.4" y1="158.44" x2="32.45" y2="180.94"/>
      <line class="cls-8" x1="117.2" y1="158.99" x2="117.25" y2="181.44"/>
      <line class="cls-10" x1="41.5" y1="177.65" x2="108.1" y2="177.68"/>
      <polygon class="cls-18" points="107.1 175.68 117.1 177.69 107.1 179.68 107.1 175.68"/>
      <polygon class="cls-18" points="42.5 179.65 32.5 177.64 42.5 175.65 42.5 179.65"/>
      <g class="cls-2">
        <text class="cls-35" transform="translate(46.56 174.84)"><tspan class="cls-14" x="0" y="0">H</tspan><tspan class="cls-1" x="5.21" y="0">o</tspan><tspan class="cls-14" x="9.44" y="0">l</tspan><tspan class="cls-13" x="11.27" y="0">e</tspan><tspan class="cls-29" x="15.39" y="0"> </tspan><tspan x="17.12" y="0">s</tspan><tspan class="cls-11" x="20.97" y="0">i</tspan><tspan x="22.93" y="0">z</tspan><tspan class="cls-1" x="26.86" y="0">e</tspan><tspan class="cls-21" x="30.98" y="0"> </tspan><tspan class="cls-1" x="32.82" y="0">209</tspan><tspan class="cls-20" x="46.29" y="0">±</tspan><tspan class="cls-1" x="51.14" y="0">1</tspan><tspan class="cls-27" x="54.48" y="0">.</tspan><tspan class="cls-28" x="56.62" y="0">5</tspan></text>
      </g>
      <g class="cls-25">
        <text class="cls-37" transform="translate(102.6 174.84)"><tspan x="0" y="0"> </tspan></text>
      </g>
    </g>
  </g>
</svg>