<?xml version="1.0" encoding="UTF-8"?>
<svg id="Layer_2" data-name="Layer 2" xmlns="http://www.w3.org/2000/svg" viewBox="0 0 174.8 134.49">
  <defs>
    <style>
      .cls-1 {
        stroke-linejoin: round;
        stroke-width: .42px;
      }

      .cls-1, .cls-2 {
        fill: none;
        stroke: #000;
        stroke-linecap: round;
      }

      .cls-2 {
        stroke-miterlimit: 10;
      }

      .cls-3 {
        font-family: Inter-SemiBold, Inter;
        font-size: 5px;
        font-variation-settings: 'wght' 600, 'slnt' 0;
        font-weight: 600;
      }
    </style>
  </defs>
  <g id="Layer_1-2" data-name="Layer 1">
    <g>
      <path class="cls-1" d="M113.01,133.86c.42,0,.77-.34.77-.76"/>
      <line class="cls-1" x1="113.42" y1="133.11" x2="113.81" y2="133.11"/>
      <path class="cls-1" d="M113.01,133.47c.21,0,.38-.17.38-.38"/>
      <line class="cls-1" x1="113.03" y1="133.89" x2="113.03" y2="133.5"/>
      <path class="cls-1" d="M17.81,133.09c0,.42.34.76.77.76"/>
      <line class="cls-1" x1="17.84" y1="133.11" x2="18.23" y2="133.11"/>
      <line class="cls-1" x1="18.59" y1="133.5" x2="18.59" y2="133.89"/>
      <path class="cls-1" d="M18.2,133.09c0,.21.17.38.38.38"/>
      <line class="cls-1" x1="113.42" y1="133.11" x2="113.42" y2="113.61"/>
      <polyline class="cls-1" points="113.81 133.11 113.81 111.48 113.72 111.48"/>
      <line class="cls-1" x1="18.23" y1="133.11" x2="18.23" y2="113.61"/>
      <polyline class="cls-1" points="17.93 111.48 17.84 111.48 17.84 133.11"/>
      <line class="cls-1" x1="18.59" y1="133.89" x2="24.23" y2="133.89"/>
      <line class="cls-1" x1="24.23" y1="133.5" x2="18.59" y2="133.5"/>
      <polyline class="cls-1" points="24.23 133.89 30.62 133.89 101 133.89 107.42 133.89 113.03 133.89"/>
      <polyline class="cls-1" points="107.42 133.89 107.42 133.5 101 133.5 101 133.89"/>
      <line class="cls-1" x1="101" y1="133.5" x2="30.62" y2="133.5"/>
      <line class="cls-1" x1="113.03" y1="133.5" x2="107.42" y2="133.5"/>
      <polyline class="cls-1" points="30.62 133.89 30.62 133.5 24.23 133.5 24.23 133.89"/>
      <line class="cls-1" x1="112.67" y1="132.75" x2="112.67" y2="113.61"/>
      <polyline class="cls-1" points="113.42 133.11 113.36 133.02 113.21 132.93 112.94 132.84 112.67 132.75 112.94 132.93 113 133.02 113.03 133.11"/>
      <polyline class="cls-1" points="18.98 132.75 18.68 132.84 18.44 132.93 18.29 133.02 18.23 133.11"/>
      <line class="cls-1" x1="18.98" y1="113.61" x2="18.98" y2="132.75"/>
      <polyline class="cls-1" points="18.98 132.75 18.71 132.93 18.62 133.02 18.59 133.11"/>
      <polyline class="cls-1" points="112.67 132.75 112.76 133.02 112.85 133.29 112.94 133.44 113.03 133.5"/>
      <line class="cls-1" x1="18.98" y1="132.75" x2="29.69" y2="132.75"/>
      <line class="cls-1" x1="34.79" y1="132.75" x2="52.07" y2="132.75"/>
      <line class="cls-1" x1="57.17" y1="132.75" x2="74.48" y2="132.75"/>
      <line class="cls-1" x1="79.58" y1="132.75" x2="96.86" y2="132.75"/>
      <line class="cls-1" x1="101.96" y1="132.75" x2="112.67" y2="132.75"/>
      <polyline class="cls-1" points="18.62 133.5 18.71 133.44 18.8 133.29 18.89 133.02 18.98 132.75 18.8 133.02 18.71 133.08 18.62 133.11"/>
      <polyline class="cls-1" points="112.67 132.75 112.85 133.02 112.94 133.08 113.03 133.11 113.42 133.11"/>
      <line class="cls-1" x1="18.59" y1="133.11" x2="18.23" y2="133.11"/>
      <line class="cls-1" x1="18.62" y1="133.11" x2="18.62" y2="133.5"/>
      <line class="cls-1" x1="113.03" y1="133.11" x2="113.03" y2="133.5"/>
      <polyline class="cls-1" points="114.2 111.75 114.14 111.45 113.96 111.21 113.84 111.12 113.72 111.03 113.42 110.97"/>
      <line class="cls-1" x1="113.72" y1="111.48" x2="113.72" y2="111.48"/>
      <line class="cls-1" x1="113.78" y1="111.75" x2="17.87" y2="111.75"/>
      <polyline class="cls-1" points="17.87 111.75 17.96 111.45 18.05 111.21 18.14 111.03 18.23 110.97 113.42 110.97 113.51 111.03 113.6 111.21 113.69 111.45 113.78 111.75"/>
      <polyline class="cls-1" points="18.23 110.97 17.93 111.03 17.69 111.21 17.57 111.33 17.51 111.45 17.45 111.75"/>
      <line class="cls-1" x1="17.93" y1="111.48" x2="17.93" y2="111.48"/>
      <polyline class="cls-1" points="113.81 113.61 114.2 113.61 114.2 111.75 113.81 111.75"/>
      <line class="cls-1" x1="17.87" y1="113.61" x2="17.87" y2="111.75"/>
      <line class="cls-1" x1="113.78" y1="111.75" x2="113.78" y2="113.61"/>
      <polyline class="cls-1" points="17.84 111.75 17.45 111.75 17.45 113.61 17.84 113.61"/>
      <line class="cls-1" x1="113.78" y1="113.61" x2="17.87" y2="113.61"/>
      <path class="cls-1" d="M37.99,119.26c-3.55-2.13-7.98-2.13-11.53,0"/>
      <line class="cls-1" x1="26.48" y1="127.62" x2="26.48" y2="119.28"/>
      <path class="cls-1" d="M26.46,127.61c3.55,2.13,7.98,2.13,11.53,0"/>
      <line class="cls-1" x1="38" y1="119.28" x2="38" y2="127.62"/>
      <path class="cls-1" d="M41.84,123.43c0-5.31-4.3-9.61-9.61-9.61s-9.62,4.3-9.62,9.61,4.3,9.61,9.62,9.61,9.61-4.3,9.61-9.61"/>
      <path class="cls-1" d="M41.69,123.43c0-5.23-4.24-9.46-9.46-9.46s-9.46,4.24-9.46,9.46,4.24,9.47,9.46,9.47,9.46-4.24,9.46-9.47"/>
      <path class="cls-1" d="M60.37,119.26c-3.55-2.13-7.98-2.13-11.53,0"/>
      <line class="cls-1" x1="48.86" y1="127.62" x2="48.86" y2="119.28"/>
      <path class="cls-1" d="M48.84,127.61c3.55,2.13,7.98,2.13,11.53,0"/>
      <line class="cls-1" x1="60.38" y1="119.28" x2="60.38" y2="127.62"/>
      <path class="cls-1" d="M64.22,123.43c0-5.31-4.3-9.61-9.61-9.61s-9.62,4.3-9.62,9.61,4.3,9.61,9.62,9.61,9.61-4.3,9.61-9.61"/>
      <path class="cls-1" d="M64.07,123.43c0-5.23-4.24-9.46-9.46-9.46s-9.47,4.24-9.47,9.46,4.24,9.47,9.47,9.47,9.46-4.24,9.46-9.47"/>
      <path class="cls-1" d="M82.78,119.26c-3.55-2.13-7.98-2.13-11.53,0"/>
      <line class="cls-1" x1="71.27" y1="127.62" x2="71.27" y2="119.28"/>
      <path class="cls-1" d="M71.25,127.61c3.55,2.13,7.98,2.13,11.53,0"/>
      <line class="cls-1" x1="82.79" y1="119.28" x2="82.79" y2="127.62"/>
      <path class="cls-1" d="M86.63,123.43c0-5.31-4.3-9.61-9.62-9.61s-9.61,4.3-9.61,9.61,4.3,9.61,9.61,9.61,9.62-4.3,9.62-9.61"/>
      <path class="cls-1" d="M86.48,123.43c0-5.23-4.24-9.46-9.47-9.46s-9.46,4.24-9.46,9.46,4.24,9.47,9.46,9.47,9.47-4.24,9.47-9.47"/>
      <path class="cls-1" d="M105.16,119.26c-3.55-2.13-7.98-2.13-11.53,0"/>
      <line class="cls-1" x1="93.65" y1="127.62" x2="93.65" y2="119.28"/>
      <path class="cls-1" d="M93.63,127.61c3.55,2.13,7.98,2.13,11.53,0"/>
      <line class="cls-1" x1="105.17" y1="119.28" x2="105.17" y2="127.62"/>
      <path class="cls-1" d="M109.01,123.43c0-5.31-4.3-9.61-9.62-9.61s-9.61,4.3-9.61,9.61,4.3,9.61,9.61,9.61,9.62-4.3,9.62-9.61"/>
      <path class="cls-1" d="M108.86,123.43c0-5.23-4.24-9.46-9.46-9.46s-9.46,4.24-9.46,9.46,4.24,9.47,9.46,9.47,9.46-4.24,9.46-9.47"/>
      <line class="cls-1" x1="114.29" y1="126.9" x2="114.29" y2="114.3"/>
      <line class="cls-1" x1="114.29" y1="129.06" x2="114.29" y2="128.46"/>
      <line class="cls-1" x1="114.29" y1="133.56" x2="114.29" y2="130.65"/>
      <line class="cls-1" x1="114.44" y1="130.59" x2="114.44" y2="133.41"/>
      <line class="cls-1" x1="114.44" y1="128.46" x2="114.44" y2="129.06"/>
      <line class="cls-1" x1="114.44" y1="114.48" x2="114.44" y2="126.93"/>
      <path class="cls-1" d="M114.27,133.56c.09,0,.17-.07.17-.17"/>
      <path class="cls-1" d="M114.44,114.46c0-.09-.07-.17-.17-.17"/>
      <line class="cls-1" x1="113.81" y1="133.56" x2="113.81" y2="133.11"/>
      <line class="cls-1" x1="114.02" y1="114.3" x2="114.29" y2="114.3"/>
      <line class="cls-1" x1="113.81" y1="133.56" x2="114.29" y2="133.56"/>
      <line class="cls-1" x1="17.36" y1="114.3" x2="17.36" y2="133.56"/>
      <line class="cls-1" x1="17.18" y1="133.41" x2="17.18" y2="114.45"/>
      <path class="cls-1" d="M17.34,114.27c-.09,0-.17.07-.17.17"/>
      <path class="cls-1" d="M17.18,133.39c0,.09.07.17.17.17"/>
      <polyline class="cls-1" points="17.84 133.11 17.84 133.56 17.36 133.56"/>
      <line class="cls-1" x1="17.63" y1="114.3" x2="17.36" y2="114.3"/>
      <line class="cls-1" x1="17.36" y1="133.56" x2="17.36" y2="133.56"/>
      <line class="cls-1" x1="17.18" y1="133.41" x2="17.18" y2="133.41"/>
      <path class="cls-1" d="M17.18,133.39c0,.09.07.17.17.17"/>
      <line class="cls-1" x1="17.36" y1="133.56" x2="17.84" y2="133.56"/>
      <line class="cls-1" x1="111.5" y1="110.49" x2="108.95" y2="110.49"/>
      <line class="cls-1" x1="109.43" y1="109.98" x2="111.02" y2="109.98"/>
      <path class="cls-1" d="M111.5,110.47c0-.27-.22-.5-.49-.5"/>
      <path class="cls-1" d="M109.41,109.98c-.27,0-.5.22-.5.5"/>
      <line class="cls-1" x1="108.95" y1="110.97" x2="108.95" y2="110.49"/>
      <line class="cls-1" x1="111.5" y1="110.97" x2="111.5" y2="110.49"/>
      <line class="cls-1" x1="67.1" y1="110.49" x2="64.55" y2="110.49"/>
      <line class="cls-1" x1="65.03" y1="109.98" x2="66.62" y2="109.98"/>
      <path class="cls-1" d="M67.1,110.47c0-.27-.22-.5-.49-.5"/>
      <path class="cls-1" d="M65.01,109.98c-.27,0-.49.22-.49.5"/>
      <line class="cls-1" x1="64.55" y1="110.97" x2="64.55" y2="110.49"/>
      <line class="cls-1" x1="67.1" y1="110.97" x2="67.1" y2="110.49"/>
      <line class="cls-1" x1="22.7" y1="110.49" x2="20.15" y2="110.49"/>
      <line class="cls-1" x1="20.63" y1="109.98" x2="22.19" y2="109.98"/>
      <path class="cls-1" d="M22.67,110.47c0-.27-.22-.5-.49-.5"/>
      <path class="cls-1" d="M20.61,109.98c-.27,0-.49.22-.49.5"/>
      <line class="cls-1" x1="20.15" y1="110.97" x2="20.15" y2="110.49"/>
      <line class="cls-1" x1="22.7" y1="110.97" x2="22.7" y2="110.49"/>
      <line class="cls-1" x1="17.78" y1="116.22" x2="17.78" y2="114.06"/>
      <path class="cls-1" d="M17.74,114.03c-.47.65-.47,1.54,0,2.19"/>
      <line class="cls-1" x1="17.78" y1="114.06" x2="17.84" y2="114.06"/>
      <line class="cls-1" x1="17.78" y1="116.22" x2="17.84" y2="116.22"/>
      <line class="cls-1" x1="17.78" y1="132.24" x2="17.78" y2="130.05"/>
      <path class="cls-1" d="M17.74,130.02c-.47.65-.47,1.54,0,2.19"/>
      <line class="cls-1" x1="17.78" y1="130.05" x2="17.84" y2="130.05"/>
      <line class="cls-1" x1="17.78" y1="132.24" x2="17.84" y2="132.24"/>
      <line class="cls-1" x1="22.52" y1="133.95" x2="20.33" y2="133.95"/>
      <path class="cls-1" d="M20.3,133.93c.65.47,1.54.47,2.19,0"/>
      <line class="cls-1" x1="20.33" y1="133.95" x2="20.33" y2="133.89"/>
      <line class="cls-1" x1="22.52" y1="133.95" x2="22.52" y2="133.89"/>
      <line class="cls-1" x1="66.92" y1="133.95" x2="64.73" y2="133.95"/>
      <path class="cls-1" d="M64.7,133.93c.65.47,1.54.47,2.19,0"/>
      <line class="cls-1" x1="64.73" y1="133.95" x2="64.73" y2="133.89"/>
      <line class="cls-1" x1="66.92" y1="133.95" x2="66.92" y2="133.89"/>
      <line class="cls-1" x1="111.32" y1="133.95" x2="109.13" y2="133.95"/>
      <path class="cls-1" d="M109.13,133.93c.65.47,1.54.47,2.19,0"/>
      <line class="cls-1" x1="109.13" y1="133.95" x2="109.13" y2="133.89"/>
      <line class="cls-1" x1="111.32" y1="133.95" x2="111.32" y2="133.89"/>
      <line class="cls-1" x1="113.87" y1="130.05" x2="113.87" y2="132.24"/>
      <path class="cls-1" d="M113.88,132.21c.47-.65.47-1.54,0-2.19"/>
      <line class="cls-1" x1="113.87" y1="132.24" x2="113.81" y2="132.24"/>
      <line class="cls-1" x1="113.87" y1="130.05" x2="113.81" y2="130.05"/>
      <line class="cls-1" x1="113.87" y1="114.06" x2="113.87" y2="116.22"/>
      <path class="cls-1" d="M113.88,116.22c.47-.65.47-1.54,0-2.19"/>
      <line class="cls-1" x1="113.87" y1="116.22" x2="113.81" y2="116.22"/>
      <line class="cls-1" x1="113.87" y1="114.06" x2="113.81" y2="114.06"/>
      <line class="cls-1" x1="29.54" y1="110.52" x2="29.57" y2="110.52"/>
      <line class="cls-1" x1="25.82" y1="110.52" x2="25.82" y2="110.52"/>
      <polyline class="cls-1" points="29.54 110.52 29.45 110.25 29.27 110.01 29.03 109.89 28.73 109.83"/>
      <polyline class="cls-1" points="28.73 109.83 26.63 109.83 26.36 109.89 26.12 110.01 25.94 110.25 25.82 110.52"/>
      <line class="cls-1" x1="29.57" y1="110.55" x2="25.79" y2="110.55"/>
      <path class="cls-1" d="M25.8,110.52s0,.03,0,.04"/>
      <path class="cls-1" d="M29.54,110.55s0-.03,0-.04"/>
      <line class="cls-1" x1="29.57" y1="110.55" x2="29.6" y2="110.97"/>
      <line class="cls-1" x1="25.79" y1="110.55" x2="25.76" y2="110.97"/>
      <polyline class="cls-1" points="114.95 127.68 114.95 128.46 114.26 128.46 114.26 129.06 114.95 129.06 114.95 129.84"/>
      <line class="cls-1" x1="114.23" y1="130.65" x2="114.23" y2="126.9"/>
      <path class="cls-1" d="M114.95,127.66c0-.41-.32-.76-.73-.79"/>
      <path class="cls-1" d="M114.22,130.62c.41-.04.73-.38.73-.79"/>
      <line class="cls-1" x1="114.23" y1="130.65" x2="114.17" y2="130.65"/>
      <line class="cls-1" x1="114.23" y1="126.9" x2="113.81" y2="126.84"/>
      <line class="cls-1" x1="113.66" y1="29.36" x2="113.81" y2="29.36"/>
      <polyline class="cls-1" points="113.66 93.35 113.81 93.35 113.81 93.2"/>
      <line class="cls-1" x1="113.81" y1="29.54" x2="113.81" y2="29.36"/>
      <line class="cls-1" x1="17.99" y1="93.35" x2="17.84" y2="93.35"/>
      <polyline class="cls-1" points="17.99 29.36 17.84 29.36 17.84 29.54"/>
      <line class="cls-1" x1="17.84" y1="93.2" x2="17.84" y2="93.35"/>
      <path class="cls-1" d="M105.23,19.74c0-.57-.46-1.03-1.03-1.03s-1.04.46-1.04,1.03.46,1.04,1.04,1.04,1.03-.46,1.03-1.04"/>
      <polyline class="cls-1" points="101 28.73 101 16.58 107.42 16.58 107.42 28.73"/>
      <path class="cls-1" d="M105.23,102.93c0-.57-.46-1.03-1.03-1.03s-1.04.46-1.04,1.03.46,1.04,1.04,1.04,1.03-.46,1.03-1.04"/>
      <polyline class="cls-1" points="107.42 94.01 107.42 106.16 101 106.16 101 94.01"/>
      <path class="cls-1" d="M28.46,102.93c0-.57-.46-1.03-1.04-1.03s-1.04.46-1.04,1.03.46,1.04,1.04,1.04,1.04-.46,1.04-1.04"/>
      <polyline class="cls-1" points="30.62 94.01 30.62 106.16 24.23 106.16 24.23 94.01"/>
      <path class="cls-1" d="M28.46,19.74c0-.57-.46-1.03-1.04-1.03s-1.04.46-1.04,1.03.46,1.04,1.04,1.04,1.04-.46,1.04-1.04"/>
      <polyline class="cls-1" points="24.23 28.73 24.23 16.58 30.62 16.58 30.62 28.73"/>
      <polyline class="cls-1" points="113.42 29.75 113.72 29.66 113.96 29.57 114.14 29.48 114.2 29.39"/>
      <line class="cls-1" x1="113.42" y1="92.96" x2="113.42" y2="29.75"/>
      <polyline class="cls-1" points="114.2 93.35 114.14 93.23 113.96 93.14 113.72 93.05 113.42 92.96 113.72 93.17"/>
      <line class="cls-1" x1="113.42" y1="29.75" x2="113.72" y2="29.57"/>
      <polyline class="cls-1" points="113.42 92.96 113.51 93.26 113.6 93.53 113.69 93.68 113.78 93.74 17.87 93.74"/>
      <line class="cls-1" x1="18.23" y1="92.96" x2="113.42" y2="92.96"/>
      <polyline class="cls-1" points="17.87 93.74 17.96 93.68 18.05 93.53 18.14 93.26 18.23 92.96 18.02 93.26"/>
      <line class="cls-1" x1="113.42" y1="92.96" x2="113.63" y2="93.26"/>
      <polyline class="cls-1" points="18.23 92.96 17.93 93.05 17.69 93.14 17.51 93.23 17.45 93.35 17.45 29.39"/>
      <line class="cls-1" x1="18.23" y1="29.75" x2="18.23" y2="92.96"/>
      <polyline class="cls-1" points="17.45 29.39 17.51 29.48 17.69 29.57 17.93 29.66 18.23 29.75 17.93 29.57"/>
      <line class="cls-1" x1="18.23" y1="92.96" x2="17.93" y2="93.17"/>
      <polyline class="cls-1" points="18.23 29.75 18.14 29.45 18.05 29.21 17.96 29.06 17.87 29 113.78 29"/>
      <line class="cls-1" x1="113.42" y1="29.75" x2="18.23" y2="29.75"/>
      <polyline class="cls-1" points="113.78 29 113.69 29.06 113.6 29.21 113.51 29.45 113.42 29.75 113.63 29.48"/>
      <line class="cls-1" x1="18.23" y1="29.75" x2="18.02" y2="29.48"/>
      <line class="cls-1" x1="113.81" y1="93.35" x2="114.2" y2="93.35"/>
      <line class="cls-1" x1="113.81" y1="29.39" x2="114.2" y2="29.39"/>
      <line class="cls-1" x1="17.87" y1="93.35" x2="17.87" y2="93.74"/>
      <line class="cls-1" x1="113.78" y1="93.35" x2="113.78" y2="93.74"/>
      <line class="cls-1" x1="17.84" y1="29.39" x2="17.45" y2="29.39"/>
      <line class="cls-1" x1="17.84" y1="93.35" x2="17.45" y2="93.35"/>
      <line class="cls-1" x1="113.78" y1="29.36" x2="113.78" y2="29"/>
      <line class="cls-1" x1="17.87" y1="29.36" x2="17.87" y2="29"/>
      <line class="cls-1" x1="22.61" y1="93.83" x2="41.87" y2="93.83"/>
      <line class="cls-1" x1="41.69" y1="94.01" x2="22.76" y2="94.01"/>
      <path class="cls-1" d="M22.58,93.81c0,.09.07.17.17.17"/>
      <path class="cls-1" d="M41.67,93.98c.09,0,.17-.07.17-.17"/>
      <line class="cls-1" x1="41.87" y1="93.74" x2="41.87" y2="93.83"/>
      <line class="cls-1" x1="22.61" y1="93.74" x2="22.61" y2="93.83"/>
      <line class="cls-1" x1="44.99" y1="93.83" x2="64.25" y2="93.83"/>
      <line class="cls-1" x1="64.1" y1="94.01" x2="45.14" y2="94.01"/>
      <path class="cls-1" d="M44.96,93.81c0,.09.07.17.17.17"/>
      <path class="cls-1" d="M64.08,93.98c.09,0,.17-.07.17-.17"/>
      <line class="cls-1" x1="64.25" y1="93.74" x2="64.25" y2="93.83"/>
      <line class="cls-1" x1="44.99" y1="93.74" x2="44.99" y2="93.83"/>
      <line class="cls-1" x1="67.4" y1="93.83" x2="86.66" y2="93.83"/>
      <line class="cls-1" x1="86.48" y1="94.01" x2="67.55" y2="94.01"/>
      <path class="cls-1" d="M67.37,93.81c0,.09.07.17.17.17"/>
      <path class="cls-1" d="M86.46,93.98c.09,0,.17-.07.17-.17"/>
      <line class="cls-1" x1="86.66" y1="93.74" x2="86.66" y2="93.83"/>
      <line class="cls-1" x1="67.4" y1="93.74" x2="67.4" y2="93.83"/>
      <line class="cls-1" x1="89.78" y1="93.83" x2="109.04" y2="93.83"/>
      <line class="cls-1" x1="108.89" y1="94.01" x2="89.93" y2="94.01"/>
      <path class="cls-1" d="M89.75,93.81c0,.09.07.17.17.17"/>
      <path class="cls-1" d="M108.87,93.98c.09,0,.17-.07.17-.17"/>
      <line class="cls-1" x1="109.04" y1="93.74" x2="109.04" y2="93.83"/>
      <line class="cls-1" x1="89.78" y1="93.74" x2="89.78" y2="93.83"/>
      <line class="cls-1" x1="41.87" y1="28.88" x2="22.61" y2="28.88"/>
      <line class="cls-1" x1="22.76" y1="28.73" x2="41.69" y2="28.73"/>
      <path class="cls-1" d="M41.84,28.86c0-.09-.07-.17-.17-.17"/>
      <path class="cls-1" d="M22.74,28.7c-.09,0-.17.07-.17.17"/>
      <line class="cls-1" x1="22.61" y1="29" x2="22.61" y2="28.88"/>
      <line class="cls-1" x1="41.87" y1="29" x2="41.87" y2="28.88"/>
      <line class="cls-1" x1="86.66" y1="28.88" x2="67.4" y2="28.88"/>
      <line class="cls-1" x1="67.55" y1="28.73" x2="86.48" y2="28.73"/>
      <path class="cls-1" d="M86.63,28.86c0-.09-.07-.17-.17-.17"/>
      <path class="cls-1" d="M67.53,28.7c-.09,0-.17.07-.17.17"/>
      <line class="cls-1" x1="67.4" y1="29" x2="67.4" y2="28.88"/>
      <line class="cls-1" x1="86.66" y1="29" x2="86.66" y2="28.88"/>
      <line class="cls-1" x1="64.25" y1="28.88" x2="44.99" y2="28.88"/>
      <line class="cls-1" x1="45.17" y1="28.73" x2="64.1" y2="28.73"/>
      <path class="cls-1" d="M64.25,28.86c0-.09-.07-.17-.17-.17"/>
      <path class="cls-1" d="M45.15,28.7c-.09,0-.17.07-.17.17"/>
      <line class="cls-1" x1="44.99" y1="29" x2="44.99" y2="28.88"/>
      <line class="cls-1" x1="64.25" y1="29" x2="64.25" y2="28.88"/>
      <line class="cls-1" x1="109.04" y1="28.88" x2="89.78" y2="28.88"/>
      <line class="cls-1" x1="89.93" y1="28.73" x2="108.89" y2="28.73"/>
      <path class="cls-1" d="M109.04,28.86c0-.09-.07-.17-.17-.17"/>
      <path class="cls-1" d="M89.91,28.7c-.09,0-.17.07-.17.17"/>
      <line class="cls-1" x1="89.78" y1="29" x2="89.78" y2="28.88"/>
      <line class="cls-1" x1="109.04" y1="29" x2="109.04" y2="28.88"/>
      <path class="cls-1" d="M111.5,91.11c0-.7-.57-1.28-1.27-1.28s-1.28.57-1.28,1.28.57,1.27,1.28,1.27,1.27-.57,1.27-1.27"/>
      <path class="cls-1" d="M111.02,91.11c0-.44-.36-.79-.79-.79s-.8.36-.8.79.36.79.8.79.79-.36.79-.79"/>
      <path class="cls-1" d="M110.39,91.61c-.04-.05-.1-.09-.16-.09s-.13.03-.16.09"/>
      <path class="cls-1" d="M109.86,91.49s0,.11.04.14c.05.03.11.01.14-.03"/>
      <path class="cls-1" d="M109.86,91.5c.03-.06.03-.13,0-.18-.03-.06-.09-.09-.16-.1"/>
      <path class="cls-1" d="M109.68,91.01c-.06,0-.1.05-.1.1s.04.1.1.1"/>
      <path class="cls-1" d="M109.7,90.98c.06,0,.12-.04.16-.1.03-.06.03-.13,0-.18"/>
      <path class="cls-1" d="M110.04,90.61s-.09-.06-.14-.03c-.05.03-.07.09-.04.14"/>
      <path class="cls-1" d="M110.06,90.59c.04.05.1.09.16.09s.13-.03.16-.09"/>
      <path class="cls-1" d="M110.56,90.71s0-.11-.04-.14c-.05-.03-.11-.01-.14.03"/>
      <path class="cls-1" d="M110.56,90.7c-.03.06-.03.13,0,.18.03.06.09.09.16.1"/>
      <path class="cls-1" d="M110.74,91.22c.06,0,.1-.05.1-.1s-.04-.1-.1-.1"/>
      <path class="cls-1" d="M110.72,91.22c-.06,0-.12.04-.16.1-.03.06-.03.13,0,.18"/>
      <path class="cls-1" d="M110.38,91.59s.09.06.14.03c.05-.03.07-.09.04-.14"/>
      <path class="cls-1" d="M67.07,91.11c0-.7-.57-1.28-1.28-1.28s-1.27.57-1.27,1.28.57,1.27,1.27,1.27,1.28-.57,1.28-1.27"/>
      <path class="cls-1" d="M66.59,91.11c0-.44-.36-.79-.8-.79s-.79.36-.79.79.36.79.79.79.8-.36.8-.79"/>
      <path class="cls-1" d="M65.96,91.61c-.04-.05-.1-.09-.16-.09s-.13.03-.16.09"/>
      <path class="cls-1" d="M65.46,91.49s0,.11.04.14c.05.03.11.01.14-.03"/>
      <path class="cls-1" d="M65.46,91.5c.03-.06.03-.13,0-.18-.03-.06-.09-.09-.16-.1"/>
      <path class="cls-1" d="M65.28,91.01c-.06,0-.1.05-.1.1s.04.1.1.1"/>
      <path class="cls-1" d="M65.3,90.98c.06,0,.12-.04.16-.1.03-.06.03-.13,0-.18"/>
      <path class="cls-1" d="M65.64,90.61s-.09-.06-.14-.03c-.05.03-.07.09-.04.14"/>
      <path class="cls-1" d="M65.63,90.59c.04.05.1.09.16.09s.13-.03.16-.09"/>
      <path class="cls-1" d="M66.16,90.71s0-.11-.04-.14c-.05-.03-.11-.01-.14.03"/>
      <path class="cls-1" d="M66.16,90.7c-.03.06-.03.13,0,.18.03.06.09.09.16.1"/>
      <path class="cls-1" d="M66.34,91.22c.06,0,.1-.05.1-.1s-.04-.1-.1-.1"/>
      <path class="cls-1" d="M66.32,91.22c-.06,0-.12.04-.16.1-.03.06-.03.13,0,.18"/>
      <path class="cls-1" d="M65.98,91.59s.09.06.14.03c.05-.03.07-.09.04-.14"/>
      <path class="cls-1" d="M22.67,91.11c0-.7-.57-1.28-1.27-1.28s-1.27.57-1.27,1.28.57,1.27,1.27,1.27,1.27-.57,1.27-1.27"/>
      <path class="cls-1" d="M22.19,91.11c0-.44-.36-.79-.8-.79s-.79.36-.79.79.36.79.79.79.8-.36.8-.79"/>
      <path class="cls-1" d="M21.56,91.61c-.04-.05-.1-.09-.16-.09s-.13.03-.16.09"/>
      <path class="cls-1" d="M21.06,91.49s0,.11.04.14c.05.03.11.01.14-.03"/>
      <path class="cls-1" d="M21.03,91.5c.03-.06.03-.13,0-.18s-.09-.09-.16-.1"/>
      <path class="cls-1" d="M20.88,91.01c-.06,0-.1.05-.1.1s.04.1.1.1"/>
      <path class="cls-1" d="M20.87,90.98c.06,0,.12-.04.16-.1.03-.06.03-.13,0-.18"/>
      <path class="cls-1" d="M21.24,90.61s-.09-.06-.14-.03c-.05.03-.07.09-.04.14"/>
      <path class="cls-1" d="M21.23,90.59c.04.05.1.09.16.09s.13-.03.16-.09"/>
      <path class="cls-1" d="M21.76,90.71s0-.11-.04-.14c-.05-.03-.11-.01-.14.03"/>
      <path class="cls-1" d="M21.76,90.7c-.03.06-.03.13,0,.18.03.06.09.09.16.1"/>
      <path class="cls-1" d="M21.91,91.22c.06,0,.1-.05.1-.1s-.04-.1-.1-.1"/>
      <path class="cls-1" d="M21.92,91.22c-.06,0-.12.04-.16.1-.03.06-.03.13,0,.18"/>
      <path class="cls-1" d="M21.58,91.59s.09.06.14.03c.05-.03.07-.09.04-.14"/>
      <path class="cls-1" d="M22.67,31.59c0-.7-.57-1.27-1.27-1.27s-1.27.57-1.27,1.27.57,1.27,1.27,1.27,1.27-.57,1.27-1.27"/>
      <path class="cls-1" d="M22.19,31.59c0-.44-.36-.79-.8-.79s-.79.36-.79.79.36.79.79.79.8-.36.8-.79"/>
      <path class="cls-1" d="M21.56,32.12c-.04-.05-.1-.09-.16-.09s-.13.03-.16.09"/>
      <path class="cls-1" d="M21.06,32s0,.11.04.14c.05.03.11.01.14-.03"/>
      <path class="cls-1" d="M21.03,31.98c.03-.06.03-.13,0-.18s-.09-.09-.16-.1"/>
      <path class="cls-1" d="M20.88,31.49c-.06,0-.1.05-.1.1s.04.1.1.1"/>
      <path class="cls-1" d="M20.87,31.49c.06,0,.12-.04.16-.1s.03-.13,0-.18"/>
      <path class="cls-1" d="M21.24,31.09s-.09-.06-.14-.03c-.05.03-.07.09-.04.14"/>
      <path class="cls-1" d="M21.23,31.07c.04.05.1.09.16.09s.13-.03.16-.09"/>
      <path class="cls-1" d="M21.76,31.19s0-.11-.04-.14c-.05-.03-.11-.01-.14.03"/>
      <path class="cls-1" d="M21.76,31.21c-.03.06-.03.13,0,.18.03.06.09.09.16.1"/>
      <path class="cls-1" d="M21.91,31.7c.06,0,.1-.05.1-.1s-.04-.1-.1-.1"/>
      <path class="cls-1" d="M21.92,31.7c-.06,0-.12.04-.16.1-.03.06-.03.13,0,.18"/>
      <path class="cls-1" d="M21.58,32.1s.09.06.14.03c.05-.03.07-.09.04-.14"/>
      <path class="cls-1" d="M67.07,31.59c0-.7-.57-1.27-1.28-1.27s-1.27.57-1.27,1.27.57,1.27,1.27,1.27,1.28-.57,1.28-1.27"/>
      <path class="cls-1" d="M66.59,31.59c0-.44-.36-.79-.8-.79s-.79.36-.79.79.36.79.79.79.8-.36.8-.79"/>
      <path class="cls-1" d="M65.96,32.12c-.04-.05-.1-.09-.16-.09s-.13.03-.16.09"/>
      <path class="cls-1" d="M65.46,32s0,.11.04.14c.05.03.11.01.14-.03"/>
      <path class="cls-1" d="M65.46,31.98c.03-.06.03-.13,0-.18-.03-.06-.09-.09-.16-.1"/>
      <path class="cls-1" d="M65.28,31.49c-.06,0-.1.05-.1.1s.04.1.1.1"/>
      <path class="cls-1" d="M65.3,31.49c.06,0,.12-.04.16-.1.03-.06.03-.13,0-.18"/>
      <path class="cls-1" d="M65.64,31.09s-.09-.06-.14-.03c-.05.03-.07.09-.04.14"/>
      <path class="cls-1" d="M65.63,31.07c.04.05.1.09.16.09s.13-.03.16-.09"/>
      <path class="cls-1" d="M66.16,31.19s0-.11-.04-.14c-.05-.03-.11-.01-.14.03"/>
      <path class="cls-1" d="M66.16,31.21c-.03.06-.03.13,0,.18.03.06.09.09.16.1"/>
      <path class="cls-1" d="M66.34,31.7c.06,0,.1-.05.1-.1s-.04-.1-.1-.1"/>
      <path class="cls-1" d="M66.32,31.7c-.06,0-.12.04-.16.1-.03.06-.03.13,0,.18"/>
      <path class="cls-1" d="M65.98,32.1s.09.06.14.03c.05-.03.07-.09.04-.14"/>
      <path class="cls-1" d="M111.5,31.59c0-.7-.57-1.27-1.27-1.27s-1.28.57-1.28,1.27.57,1.27,1.28,1.27,1.27-.57,1.27-1.27"/>
      <path class="cls-1" d="M111.02,31.59c0-.44-.36-.79-.79-.79s-.8.36-.8.79.36.79.8.79.79-.36.79-.79"/>
      <path class="cls-1" d="M110.39,32.12c-.04-.05-.1-.09-.16-.09s-.13.03-.16.09"/>
      <path class="cls-1" d="M109.86,32s0,.11.04.14c.05.03.11.01.14-.03"/>
      <path class="cls-1" d="M109.86,31.98c.03-.06.03-.13,0-.18-.03-.06-.09-.09-.16-.1"/>
      <path class="cls-1" d="M109.68,31.49c-.06,0-.1.05-.1.1s.04.1.1.1"/>
      <path class="cls-1" d="M109.7,31.49c.06,0,.12-.04.16-.1.03-.06.03-.13,0-.18"/>
      <path class="cls-1" d="M110.04,31.09s-.09-.06-.14-.03c-.05.03-.07.09-.04.14"/>
      <path class="cls-1" d="M110.06,31.07c.04.05.1.09.16.09s.13-.03.16-.09"/>
      <path class="cls-1" d="M110.56,31.19s0-.11-.04-.14c-.05-.03-.11-.01-.14.03"/>
      <path class="cls-1" d="M110.56,31.21c-.03.06-.03.13,0,.18.03.06.09.09.16.1"/>
      <path class="cls-1" d="M110.74,31.7c.06,0,.1-.05.1-.1s-.04-.1-.1-.1"/>
      <path class="cls-1" d="M110.72,31.7c-.06,0-.12.04-.16.1-.03.06-.03.13,0,.18"/>
      <path class="cls-1" d="M110.38,32.1s.09.06.14.03c.05-.03.07-.09.04-.14"/>
      <path class="cls-1" d="M114.2,31.92c.04-.22.04-.44,0-.66"/>
      <path class="cls-1" d="M29.51,86.98c.03-.2.03-.41,0-.61"/>
      <path class="cls-1" d="M25.81,86.37c-.03.2-.03.41,0,.61"/>
      <line class="cls-1" x1="29.54" y1="87.02" x2="28.73" y2="87.02"/>
      <polyline class="cls-1" points="28.73 87.02 26.63 87.02 25.82 87.02"/>
      <polyline class="cls-1" points="25.82 86.39 26.63 86.39 28.73 86.39 29.54 86.39"/>
      <path class="cls-1" d="M26.61,86.98c.14.47.56.79,1.05.79s.91-.32,1.05-.79"/>
      <path class="cls-1" d="M28.71,86.37c-.14-.47-.56-.79-1.05-.79s-.91.32-1.05.79"/>
      <path class="cls-1" d="M29.54,86.67c0-1.04-.84-1.88-1.88-1.88s-1.88.84-1.88,1.88.84,1.88,1.88,1.88,1.88-.84,1.88-1.88"/>
      <path class="cls-1" d="M29.57,86.67c0-1.05-.85-1.9-1.9-1.9s-1.9.85-1.9,1.9.85,1.9,1.9,1.9,1.9-.85,1.9-1.9"/>
      <line class="cls-1" x1="17.33" y1="29" x2="4.04" y2="29"/>
      <line class="cls-1" x1="17.33" y1="93.74" x2="4.04" y2="93.74"/>
      <line class="cls-1" x1="5.06" y1="31.55" x2="5.06" y2="58.4"/>
      <line class="cls-1" x1="5.06" y1="91.19" x2="5.06" y2="30.8"/>
      <polygon points="4.64 31.55 5.48 31.55 5.06 29 4.64 31.55"/>
      <polygon class="cls-2" points="4.64 31.55 5.48 31.55 5.06 29 4.64 31.55"/>
      <polygon points="4.64 91.19 5.48 91.19 5.06 93.74 4.64 91.19"/>
      <polygon class="cls-2" points="4.64 91.19 5.48 91.19 5.06 93.74 4.64 91.19"/>
      <text class="cls-3" transform="translate(4.32 64.25) rotate(-90)"><tspan x="0" y="0">202</tspan></text>
      <line class="cls-1" x1="17.45" y1="28.88" x2="17.45" y2="4.07"/>
      <line class="cls-1" x1="114.2" y1="28.88" x2="114.2" y2="4.07"/>
      <line class="cls-1" x1="20" y1="5.09" x2="111.65" y2="5.09"/>
      <line class="cls-1" x1="111.65" y1="5.09" x2="68.81" y2="5.09"/>
      <polygon points="20 4.64 20 5.51 17.45 5.09 20 4.64"/>
      <polygon class="cls-2" points="20 4.64 20 5.51 17.45 5.09 20 4.64"/>
      <polygon points="111.65 4.64 111.65 5.51 114.2 5.09 111.65 4.64"/>
      <polygon class="cls-2" points="111.65 4.64 111.65 5.51 114.2 5.09 111.65 4.64"/>
      <text class="cls-3" transform="translate(62.93 4.32)"><tspan x="0" y="0">302</tspan></text>
      <line class="cls-1" x1="17.72" y1="110.97" x2="8.63" y2="110.97"/>
      <line class="cls-1" x1="18.08" y1="133.89" x2="8.63" y2="133.89"/>
      <line class="cls-1" x1="9.65" y1="113.55" x2="9.65" y2="120.42"/>
      <line class="cls-1" x1="9.65" y1="131.34" x2="9.65" y2="113.29"/>
      <polygon points="9.2 113.55 10.07 113.55 9.65 110.97 9.2 113.55"/>
      <polygon class="cls-2" points="9.2 113.55 10.07 113.55 9.65 110.97 9.2 113.55"/>
      <polygon points="9.2 131.34 10.07 131.34 9.65 133.89 9.2 131.34"/>
      <polygon class="cls-2" points="9.2 131.34 10.07 131.34 9.65 133.89 9.2 131.34"/>
      <text class="cls-3" transform="translate(8.91 124.35) rotate(-90)"><tspan x="0" y="0">72</tspan></text>
      <polyline class="cls-1" points="115.4 130.17 115.4 126.81 115.4 123.45 115.4 120.09 115.4 116.73 113.81 116.73"/>
      <line class="cls-1" x1="115.4" y1="123.45" x2="113.81" y2="123.45"/>
      <line class="cls-1" x1="115.4" y1="130.17" x2="114.89" y2="130.17"/>
      <line class="cls-1" x1="125.96" y1="130.17" x2="125.96" y2="116.73"/>
      <path class="cls-1" d="M125.94,130.17c.36,0,.64-.29.64-.64"/>
      <path class="cls-1" d="M126.59,117.37c0-.36-.29-.65-.64-.65"/>
      <line class="cls-1" x1="115.4" y1="116.73" x2="125.96" y2="116.73"/>
      <line class="cls-1" x1="115.4" y1="130.17" x2="125.96" y2="130.17"/>
      <line class="cls-1" x1="126.62" y1="129.78" x2="126.62" y2="117.15"/>
      <line class="cls-1" x1="114.23" y1="130.65" x2="114.11" y2="130.65"/>
      <line class="cls-1" x1="114.2" y1="29.39" x2="114.2" y2="93.35"/>
      <line class="cls-1" x1="115.4" y1="69.35" x2="115.4" y2="67.43"/>
      <polyline class="cls-1" points="115.4 67.43 115.4 65.48 115.4 61.61 115.4 57.74 115.4 55.79 115.4 53.84"/>
      <line class="cls-1" x1="115.4" y1="65.48" x2="114.2" y2="65.48"/>
      <line class="cls-1" x1="115.4" y1="69.35" x2="114.2" y2="69.35"/>
      <line class="cls-1" x1="115.4" y1="53.84" x2="114.2" y2="53.84"/>
      <line class="cls-1" x1="115.4" y1="57.74" x2="114.2" y2="57.74"/>
      <line class="cls-1" x1="125.96" y1="68.33" x2="125.96" y2="54.89"/>
      <path class="cls-1" d="M125.94,68.3c.36,0,.64-.29.64-.65"/>
      <path class="cls-1" d="M126.59,55.5c0-.36-.29-.65-.64-.65"/>
      <line class="cls-1" x1="115.4" y1="54.89" x2="125.96" y2="54.89"/>
      <line class="cls-1" x1="115.4" y1="68.33" x2="125.96" y2="68.33"/>
      <line class="cls-1" x1="126.62" y1="67.91" x2="126.62" y2="55.28"/>
      <line class="cls-1" x1="114.26" y1="88.82" x2="114.26" y2="88.85"/>
      <line class="cls-1" x1="114.26" y1="85.07" x2="114.26" y2="85.1"/>
      <polyline class="cls-1" points="114.26 88.82 114.41 88.79 114.56 88.73 114.68 88.64 114.77 88.55 114.86 88.43 114.92 88.28 114.95 88.16 114.95 88.01"/>
      <polyline class="cls-1" points="114.95 88.01 114.95 85.91 114.95 85.76 114.92 85.64 114.86 85.49 114.77 85.37 114.68 85.28 114.56 85.19 114.41 85.13 114.26 85.1"/>
      <line class="cls-1" x1="114.23" y1="88.85" x2="114.23" y2="85.07"/>
      <path class="cls-1" d="M114.26,85.08s-.03,0-.04,0"/>
      <path class="cls-1" d="M114.22,88.82s.03,0,.04,0"/>
      <line class="cls-1" x1="114.23" y1="88.85" x2="114.2" y2="88.85"/>
      <line class="cls-1" x1="114.23" y1="85.07" x2="114.2" y2="85.07"/>
      <path class="cls-1" d="M114.2,31.92c.04-.22.04-.44,0-.66"/>
      <path class="cls-1" d="M114.2,91.44c.04-.22.04-.44,0-.66"/>
      <polyline class="cls-1" points="126.62 129.78 174.59 129.78 174.59 117.15 126.62 117.15"/>
      <line class="cls-1" x1="174.59" y1="117.15" x2="173.96" y2="117.15"/>
      <line class="cls-1" x1="173.96" y1="129.78" x2="174.59" y2="117.15"/>
      <line class="cls-1" x1="173.96" y1="117.15" x2="173.33" y2="117.15"/>
      <line class="cls-1" x1="172.67" y1="129.78" x2="172.67" y2="117.15"/>
      <line class="cls-1" x1="171.41" y1="129.78" x2="171.41" y2="117.15"/>
      <line class="cls-1" x1="170.12" y1="129.78" x2="170.12" y2="117.15"/>
      <line class="cls-1" x1="145.79" y1="129.78" x2="145.79" y2="117.15"/>
      <line class="cls-1" x1="144.53" y1="129.78" x2="144.53" y2="117.15"/>
      <line class="cls-1" x1="148.37" y1="129.78" x2="148.37" y2="117.15"/>
      <line class="cls-1" x1="147.08" y1="129.78" x2="147.08" y2="117.15"/>
      <line class="cls-1" x1="150.92" y1="129.78" x2="150.92" y2="117.15"/>
      <line class="cls-1" x1="149.63" y1="129.78" x2="149.63" y2="117.15"/>
      <line class="cls-1" x1="153.47" y1="129.78" x2="153.47" y2="117.15"/>
      <line class="cls-1" x1="152.21" y1="129.78" x2="152.21" y2="117.15"/>
      <line class="cls-1" x1="156.05" y1="129.78" x2="156.05" y2="117.15"/>
      <line class="cls-1" x1="154.76" y1="129.78" x2="154.76" y2="117.15"/>
      <line class="cls-1" x1="158.6" y1="129.78" x2="158.6" y2="117.15"/>
      <line class="cls-1" x1="157.31" y1="129.78" x2="157.31" y2="117.15"/>
      <line class="cls-1" x1="161.15" y1="129.78" x2="161.15" y2="117.15"/>
      <line class="cls-1" x1="159.89" y1="129.78" x2="159.89" y2="117.15"/>
      <line class="cls-1" x1="163.73" y1="129.78" x2="163.73" y2="117.15"/>
      <line class="cls-1" x1="162.44" y1="129.78" x2="162.44" y2="117.15"/>
      <line class="cls-1" x1="166.28" y1="129.78" x2="166.28" y2="117.15"/>
      <line class="cls-1" x1="164.99" y1="129.78" x2="164.99" y2="117.15"/>
      <line class="cls-1" x1="168.83" y1="129.78" x2="168.83" y2="117.15"/>
      <line class="cls-1" x1="167.57" y1="129.78" x2="167.57" y2="117.15"/>
      <line class="cls-1" x1="168.83" y1="117.15" x2="169.49" y2="117.15"/>
      <line class="cls-1" x1="127.88" y1="129.78" x2="127.88" y2="117.15"/>
      <line class="cls-1" x1="130.46" y1="129.78" x2="130.46" y2="117.15"/>
      <line class="cls-1" x1="129.17" y1="129.78" x2="129.17" y2="117.15"/>
      <line class="cls-1" x1="133.01" y1="129.78" x2="133.01" y2="117.15"/>
      <line class="cls-1" x1="131.72" y1="129.78" x2="131.72" y2="117.15"/>
      <line class="cls-1" x1="135.56" y1="129.78" x2="135.56" y2="117.15"/>
      <line class="cls-1" x1="134.3" y1="129.78" x2="134.3" y2="117.15"/>
      <line class="cls-1" x1="138.14" y1="129.78" x2="138.14" y2="117.15"/>
      <line class="cls-1" x1="136.85" y1="129.78" x2="136.85" y2="117.15"/>
      <line class="cls-1" x1="140.69" y1="129.78" x2="140.69" y2="117.15"/>
      <line class="cls-1" x1="139.4" y1="129.78" x2="139.4" y2="117.15"/>
      <line class="cls-1" x1="143.24" y1="129.78" x2="143.24" y2="117.15"/>
      <line class="cls-1" x1="141.95" y1="129.78" x2="141.95" y2="117.15"/>
      <line class="cls-1" x1="143.24" y1="117.15" x2="143.87" y2="117.15"/>
      <polyline class="cls-1" points="126.62 67.91 174.59 67.91 174.59 55.28 126.62 55.28"/>
      <line class="cls-1" x1="174.59" y1="55.28" x2="173.96" y2="55.28"/>
      <line class="cls-1" x1="173.96" y1="67.91" x2="174.59" y2="55.28"/>
      <line class="cls-1" x1="173.96" y1="55.28" x2="173.33" y2="55.28"/>
      <line class="cls-1" x1="172.67" y1="67.91" x2="172.67" y2="55.28"/>
      <line class="cls-1" x1="171.41" y1="67.91" x2="171.41" y2="55.28"/>
      <line class="cls-1" x1="170.12" y1="67.91" x2="170.12" y2="55.28"/>
      <line class="cls-1" x1="145.79" y1="67.91" x2="145.79" y2="55.28"/>
      <line class="cls-1" x1="144.53" y1="67.91" x2="144.53" y2="55.28"/>
      <line class="cls-1" x1="148.37" y1="67.91" x2="148.37" y2="55.28"/>
      <line class="cls-1" x1="147.08" y1="67.91" x2="147.08" y2="55.28"/>
      <line class="cls-1" x1="150.92" y1="67.91" x2="150.92" y2="55.28"/>
      <line class="cls-1" x1="149.63" y1="67.91" x2="149.63" y2="55.28"/>
      <line class="cls-1" x1="153.47" y1="67.91" x2="153.47" y2="55.28"/>
      <line class="cls-1" x1="152.21" y1="67.91" x2="152.21" y2="55.28"/>
      <line class="cls-1" x1="156.05" y1="67.91" x2="156.05" y2="55.28"/>
      <line class="cls-1" x1="154.76" y1="67.91" x2="154.76" y2="55.28"/>
      <line class="cls-1" x1="158.6" y1="67.91" x2="158.6" y2="55.28"/>
      <line class="cls-1" x1="157.31" y1="67.91" x2="157.31" y2="55.28"/>
      <line class="cls-1" x1="161.15" y1="67.91" x2="161.15" y2="55.28"/>
      <line class="cls-1" x1="159.89" y1="67.91" x2="159.89" y2="55.28"/>
      <line class="cls-1" x1="163.73" y1="67.91" x2="163.73" y2="55.28"/>
      <line class="cls-1" x1="162.44" y1="67.91" x2="162.44" y2="55.28"/>
      <line class="cls-1" x1="166.28" y1="67.91" x2="166.28" y2="55.28"/>
      <line class="cls-1" x1="164.99" y1="67.91" x2="164.99" y2="55.28"/>
      <line class="cls-1" x1="168.83" y1="67.91" x2="168.83" y2="55.28"/>
      <line class="cls-1" x1="167.57" y1="67.91" x2="167.57" y2="55.28"/>
      <line class="cls-1" x1="168.83" y1="55.28" x2="169.49" y2="55.28"/>
      <line class="cls-1" x1="127.88" y1="67.91" x2="127.88" y2="55.28"/>
      <line class="cls-1" x1="130.46" y1="67.91" x2="130.46" y2="55.28"/>
      <line class="cls-1" x1="129.17" y1="67.91" x2="129.17" y2="55.28"/>
      <line class="cls-1" x1="133.01" y1="67.91" x2="133.01" y2="55.28"/>
      <line class="cls-1" x1="131.72" y1="67.91" x2="131.72" y2="55.28"/>
      <line class="cls-1" x1="135.56" y1="67.91" x2="135.56" y2="55.28"/>
      <line class="cls-1" x1="134.3" y1="67.91" x2="134.3" y2="55.28"/>
      <line class="cls-1" x1="138.14" y1="67.91" x2="138.14" y2="55.28"/>
      <line class="cls-1" x1="136.85" y1="67.91" x2="136.85" y2="55.28"/>
      <line class="cls-1" x1="140.69" y1="67.91" x2="140.69" y2="55.28"/>
      <line class="cls-1" x1="139.4" y1="67.91" x2="139.4" y2="55.28"/>
      <line class="cls-1" x1="143.24" y1="67.91" x2="143.24" y2="55.28"/>
      <line class="cls-1" x1="141.95" y1="67.91" x2="141.95" y2="55.28"/>
      <line class="cls-1" x1="143.24" y1="55.28" x2="143.87" y2="55.28"/>
      <line class="cls-1" x1="17.36" y1="65.57" x2="17.36" y2="84.83"/>
      <line class="cls-1" x1="17.18" y1="84.68" x2="17.18" y2="65.75"/>
      <path class="cls-1" d="M17.34,65.57c-.09,0-.17.07-.17.16"/>
      <path class="cls-1" d="M17.18,84.66c0,.09.07.17.17.17"/>
      <line class="cls-1" x1="17.45" y1="84.83" x2="17.36" y2="84.83"/>
      <line class="cls-1" x1="17.45" y1="65.57" x2="17.36" y2="65.57"/>
      <line class="cls-1" x1="17.36" y1="38.66" x2="17.36" y2="57.92"/>
      <line class="cls-1" x1="17.18" y1="57.74" x2="17.18" y2="38.81"/>
      <path class="cls-1" d="M17.34,38.63c-.09,0-.17.07-.17.16"/>
      <path class="cls-1" d="M17.18,57.72c0,.09.07.16.17.16"/>
      <line class="cls-1" x1="17.45" y1="57.92" x2="17.36" y2="57.92"/>
      <line class="cls-1" x1="17.45" y1="38.66" x2="17.36" y2="38.66"/>
    </g>
  </g>
</svg>