<?xml version="1.0" encoding="UTF-8"?>
<svg id="Layer_2" data-name="Layer 2" xmlns="http://www.w3.org/2000/svg" viewBox="0 0 115.16 134.49">
  <defs>
    <style>
      .cls-1 {
        stroke-linejoin: round;
        stroke-width: .42px;
      }

      .cls-1, .cls-2 {
        fill: none;
        stroke: #000;
        stroke-linecap: round;
      }

      .cls-2 {
        stroke-miterlimit: 10;
      }

      .cls-3 {
        font-family: Inter-SemiBold, Inter;
        font-size: 5px;
        font-variation-settings: 'wght' 600, 'slnt' 0;
        font-weight: 600;
      }
    </style>
  </defs>
  <g id="Layer_1-2" data-name="Layer 1">
    <g>
      <path class="cls-1" d="M113.04,133.86c.42,0,.76-.34.76-.76"/>
      <line class="cls-1" x1="113.42" y1="133.11" x2="113.81" y2="133.11"/>
      <path class="cls-1" d="M113.04,133.47c.21,0,.38-.17.38-.38"/>
      <line class="cls-1" x1="113.06" y1="133.86" x2="113.06" y2="133.47"/>
      <path class="cls-1" d="M17.81,133.09c0,.42.34.76.77.76"/>
      <line class="cls-1" x1="17.84" y1="133.11" x2="18.23" y2="133.11"/>
      <line class="cls-1" x1="18.59" y1="133.47" x2="18.59" y2="133.86"/>
      <path class="cls-1" d="M18.2,133.09c0,.21.17.38.38.38"/>
      <line class="cls-1" x1="113.42" y1="133.11" x2="113.42" y2="113.58"/>
      <polyline class="cls-1" points="113.81 133.11 113.81 111.48 113.72 111.48"/>
      <line class="cls-1" x1="18.23" y1="133.11" x2="18.23" y2="113.58"/>
      <polyline class="cls-1" points="17.93 111.48 17.84 111.48 17.84 133.11"/>
      <line class="cls-1" x1="18.59" y1="133.86" x2="24.23" y2="133.86"/>
      <line class="cls-1" x1="24.23" y1="133.47" x2="18.59" y2="133.47"/>
      <polyline class="cls-1" points="24.23 133.86 30.62 133.86 101.03 133.86 107.42 133.86 113.06 133.86"/>
      <polyline class="cls-1" points="107.42 133.86 107.42 133.47 101.03 133.47 101.03 133.86"/>
      <line class="cls-1" x1="101.03" y1="133.47" x2="30.62" y2="133.47"/>
      <line class="cls-1" x1="113.06" y1="133.47" x2="107.42" y2="133.47"/>
      <polyline class="cls-1" points="30.62 133.86 30.62 133.47 24.23 133.47 24.23 133.86"/>
      <line class="cls-1" x1="112.67" y1="132.72" x2="112.67" y2="113.58"/>
      <polyline class="cls-1" points="113.42 133.08 113.36 132.99 113.21 132.9 112.97 132.81 112.67 132.72 112.94 132.9 113.03 132.99 113.06 133.08"/>
      <polyline class="cls-1" points="18.98 132.72 18.68 132.81 18.44 132.9 18.29 132.99 18.23 133.08"/>
      <line class="cls-1" x1="18.98" y1="113.58" x2="18.98" y2="132.72"/>
      <polyline class="cls-1" points="18.98 132.72 18.71 132.9 18.62 132.99 18.59 133.08"/>
      <polyline class="cls-1" points="112.67 132.72 112.76 132.99 112.85 133.26 112.94 133.41 113.03 133.47"/>
      <line class="cls-1" x1="18.98" y1="132.72" x2="29.69" y2="132.72"/>
      <line class="cls-1" x1="34.79" y1="132.72" x2="52.07" y2="132.72"/>
      <line class="cls-1" x1="57.17" y1="132.72" x2="74.48" y2="132.72"/>
      <line class="cls-1" x1="79.58" y1="132.72" x2="96.86" y2="132.72"/>
      <line class="cls-1" x1="101.96" y1="132.72" x2="112.67" y2="132.72"/>
      <polyline class="cls-1" points="18.62 133.47 18.71 133.41 18.8 133.26 18.89 133.02 18.98 132.72 18.8 132.99 18.71 133.08 18.62 133.11"/>
      <polyline class="cls-1" points="112.67 132.72 112.85 132.99 112.94 133.08 113.03 133.11"/>
      <line class="cls-1" x1="113.06" y1="133.08" x2="113.42" y2="133.08"/>
      <line class="cls-1" x1="18.59" y1="133.08" x2="18.23" y2="133.08"/>
      <line class="cls-1" x1="18.62" y1="133.11" x2="18.62" y2="133.47"/>
      <line class="cls-1" x1="113.03" y1="133.11" x2="113.03" y2="133.47"/>
      <polyline class="cls-1" points="114.2 111.72 114.14 111.42 113.96 111.18 113.87 111.09 113.72 111 113.42 110.97"/>
      <line class="cls-1" x1="113.72" y1="111.45" x2="113.72" y2="111.48"/>
      <line class="cls-1" x1="113.78" y1="111.72" x2="17.87" y2="111.72"/>
      <polyline class="cls-1" points="17.87 111.72 17.96 111.42 18.05 111.18 18.14 111 18.23 110.97 113.42 110.97 113.51 111.03 113.6 111.18 113.69 111.42 113.78 111.72"/>
      <polyline class="cls-1" points="18.23 110.97 17.93 111.03 17.69 111.18 17.57 111.3 17.51 111.42 17.45 111.72"/>
      <line class="cls-1" x1="17.93" y1="111.45" x2="17.93" y2="111.48"/>
      <polyline class="cls-1" points="113.81 113.58 114.2 113.58 114.2 111.72 113.81 111.72"/>
      <line class="cls-1" x1="17.87" y1="113.58" x2="17.87" y2="111.72"/>
      <line class="cls-1" x1="113.78" y1="111.72" x2="113.78" y2="113.58"/>
      <polyline class="cls-1" points="17.84 111.72 17.45 111.72 17.45 113.58 17.84 113.58"/>
      <line class="cls-1" x1="113.78" y1="113.58" x2="17.87" y2="113.58"/>
      <path class="cls-1" d="M37.99,119.23c-3.55-2.13-7.98-2.13-11.53,0"/>
      <line class="cls-1" x1="26.48" y1="127.59" x2="26.48" y2="119.28"/>
      <path class="cls-1" d="M26.46,127.58c3.55,2.13,7.98,2.13,11.53,0"/>
      <line class="cls-1" x1="38" y1="119.28" x2="38" y2="127.59"/>
      <path class="cls-1" d="M41.84,123.4c0-5.31-4.3-9.61-9.61-9.61s-9.61,4.3-9.61,9.61,4.3,9.62,9.61,9.62,9.61-4.3,9.61-9.62"/>
      <path class="cls-1" d="M41.69,123.4c0-5.23-4.24-9.46-9.46-9.46s-9.47,4.24-9.47,9.46,4.24,9.47,9.47,9.47,9.46-4.24,9.46-9.47"/>
      <path class="cls-1" d="M60.37,119.23c-3.55-2.13-7.98-2.13-11.53,0"/>
      <line class="cls-1" x1="48.86" y1="127.59" x2="48.86" y2="119.28"/>
      <path class="cls-1" d="M48.84,127.58c3.55,2.13,7.98,2.13,11.53,0"/>
      <line class="cls-1" x1="60.38" y1="119.28" x2="60.38" y2="127.59"/>
      <path class="cls-1" d="M64.22,123.4c0-5.31-4.3-9.61-9.61-9.61s-9.62,4.3-9.62,9.61,4.3,9.62,9.62,9.62,9.61-4.3,9.61-9.62"/>
      <path class="cls-1" d="M64.07,123.4c0-5.23-4.24-9.46-9.46-9.46s-9.47,4.24-9.47,9.46,4.24,9.47,9.47,9.47,9.46-4.24,9.46-9.47"/>
      <path class="cls-1" d="M82.78,119.23c-3.55-2.13-7.98-2.13-11.53,0"/>
      <line class="cls-1" x1="71.27" y1="127.59" x2="71.27" y2="119.28"/>
      <path class="cls-1" d="M71.25,127.58c3.55,2.13,7.98,2.13,11.53,0"/>
      <line class="cls-1" x1="82.79" y1="119.28" x2="82.79" y2="127.59"/>
      <path class="cls-1" d="M86.63,123.4c0-5.31-4.3-9.61-9.61-9.61s-9.61,4.3-9.61,9.61,4.3,9.62,9.61,9.62,9.61-4.3,9.61-9.62"/>
      <path class="cls-1" d="M86.48,123.4c0-5.23-4.24-9.46-9.47-9.46s-9.46,4.24-9.46,9.46,4.24,9.47,9.46,9.47,9.47-4.24,9.47-9.47"/>
      <path class="cls-1" d="M105.16,119.23c-3.55-2.13-7.98-2.13-11.53,0"/>
      <line class="cls-1" x1="93.65" y1="127.59" x2="93.65" y2="119.28"/>
      <path class="cls-1" d="M93.63,127.58c3.55,2.13,7.98,2.13,11.53,0"/>
      <line class="cls-1" x1="105.17" y1="119.28" x2="105.17" y2="127.59"/>
      <path class="cls-1" d="M109.01,123.4c0-5.31-4.3-9.61-9.61-9.61s-9.61,4.3-9.61,9.61,4.3,9.62,9.61,9.62,9.61-4.3,9.61-9.62"/>
      <path class="cls-1" d="M108.86,123.4c0-5.23-4.24-9.46-9.47-9.46s-9.47,4.24-9.47,9.46,4.24,9.47,9.47,9.47,9.47-4.24,9.47-9.47"/>
      <line class="cls-1" x1="114.29" y1="126.87" x2="114.29" y2="114.3"/>
      <line class="cls-1" x1="114.29" y1="129.06" x2="114.29" y2="128.43"/>
      <line class="cls-1" x1="114.29" y1="133.56" x2="114.29" y2="130.62"/>
      <line class="cls-1" x1="114.44" y1="130.59" x2="114.44" y2="133.38"/>
      <line class="cls-1" x1="114.44" y1="128.43" x2="114.44" y2="129.06"/>
      <line class="cls-1" x1="114.44" y1="114.45" x2="114.44" y2="126.9"/>
      <path class="cls-1" d="M114.27,133.53c.09,0,.16-.07.16-.16"/>
      <path class="cls-1" d="M114.44,114.43c0-.09-.07-.17-.16-.17"/>
      <line class="cls-1" x1="113.81" y1="133.56" x2="113.81" y2="133.11"/>
      <line class="cls-1" x1="114.02" y1="114.3" x2="114.29" y2="114.3"/>
      <line class="cls-1" x1="113.81" y1="133.56" x2="114.29" y2="133.56"/>
      <line class="cls-1" x1="17.36" y1="114.27" x2="17.36" y2="133.53"/>
      <line class="cls-1" x1="17.21" y1="133.38" x2="17.21" y2="114.45"/>
      <path class="cls-1" d="M17.34,114.27c-.09,0-.17.07-.17.17"/>
      <path class="cls-1" d="M17.18,133.36c0,.09.07.16.17.16"/>
      <polyline class="cls-1" points="17.84 133.11 17.84 133.53 17.36 133.53"/>
      <line class="cls-1" x1="17.63" y1="114.27" x2="17.36" y2="114.27"/>
      <line class="cls-1" x1="17.36" y1="133.53" x2="17.36" y2="133.56"/>
      <line class="cls-1" x1="17.21" y1="133.38" x2="17.21" y2="133.38"/>
      <path class="cls-1" d="M17.18,133.36c0,.09.07.16.17.16"/>
      <polyline class="cls-1" points="17.84 133.53 17.84 133.56 17.36 133.56"/>
      <line class="cls-1" x1="111.5" y1="110.46" x2="108.95" y2="110.46"/>
      <line class="cls-1" x1="109.46" y1="109.95" x2="111.02" y2="109.95"/>
      <path class="cls-1" d="M111.5,110.44c0-.27-.22-.49-.49-.49"/>
      <path class="cls-1" d="M109.44,109.95c-.27,0-.49.22-.49.49"/>
      <line class="cls-1" x1="108.95" y1="110.97" x2="108.95" y2="110.46"/>
      <line class="cls-1" x1="111.5" y1="110.97" x2="111.5" y2="110.46"/>
      <line class="cls-1" x1="67.1" y1="110.46" x2="64.55" y2="110.46"/>
      <line class="cls-1" x1="65.03" y1="109.95" x2="66.62" y2="109.95"/>
      <path class="cls-1" d="M67.1,110.44c0-.27-.22-.49-.49-.49"/>
      <path class="cls-1" d="M65.01,109.95c-.27,0-.49.22-.49.49"/>
      <line class="cls-1" x1="64.55" y1="110.97" x2="64.55" y2="110.46"/>
      <line class="cls-1" x1="67.1" y1="110.97" x2="67.1" y2="110.46"/>
      <line class="cls-1" x1="22.7" y1="110.46" x2="20.15" y2="110.46"/>
      <line class="cls-1" x1="20.63" y1="109.95" x2="22.19" y2="109.95"/>
      <path class="cls-1" d="M22.67,110.44c0-.27-.22-.49-.49-.49"/>
      <path class="cls-1" d="M20.61,109.95c-.27,0-.49.22-.49.49"/>
      <line class="cls-1" x1="20.15" y1="110.97" x2="20.15" y2="110.46"/>
      <line class="cls-1" x1="22.7" y1="110.97" x2="22.7" y2="110.46"/>
      <line class="cls-1" x1="17.78" y1="116.22" x2="17.78" y2="114.03"/>
      <path class="cls-1" d="M17.74,114c-.47.65-.47,1.54,0,2.19"/>
      <line class="cls-1" x1="17.78" y1="114.03" x2="17.84" y2="114.03"/>
      <line class="cls-1" x1="17.78" y1="116.22" x2="17.84" y2="116.22"/>
      <line class="cls-1" x1="17.78" y1="132.21" x2="17.78" y2="130.02"/>
      <path class="cls-1" d="M17.74,129.99c-.47.65-.47,1.54,0,2.19"/>
      <line class="cls-1" x1="17.78" y1="130.02" x2="17.84" y2="130.02"/>
      <line class="cls-1" x1="17.78" y1="132.21" x2="17.84" y2="132.21"/>
      <line class="cls-1" x1="22.52" y1="133.92" x2="20.33" y2="133.92"/>
      <path class="cls-1" d="M20.3,133.93c.65.47,1.54.47,2.19,0"/>
      <line class="cls-1" x1="20.33" y1="133.92" x2="20.33" y2="133.86"/>
      <line class="cls-1" x1="22.52" y1="133.92" x2="22.52" y2="133.86"/>
      <line class="cls-1" x1="66.92" y1="133.92" x2="64.73" y2="133.92"/>
      <path class="cls-1" d="M64.7,133.93c.65.47,1.54.47,2.19,0"/>
      <line class="cls-1" x1="64.73" y1="133.92" x2="64.73" y2="133.86"/>
      <line class="cls-1" x1="66.92" y1="133.92" x2="66.92" y2="133.86"/>
      <line class="cls-1" x1="111.32" y1="133.92" x2="109.13" y2="133.92"/>
      <path class="cls-1" d="M109.13,133.93c.65.47,1.54.47,2.19,0"/>
      <line class="cls-1" x1="109.13" y1="133.92" x2="109.13" y2="133.86"/>
      <line class="cls-1" x1="111.32" y1="133.92" x2="111.32" y2="133.86"/>
      <line class="cls-1" x1="113.87" y1="130.02" x2="113.87" y2="132.21"/>
      <path class="cls-1" d="M113.88,132.18c.47-.65.47-1.54,0-2.19"/>
      <line class="cls-1" x1="113.87" y1="132.21" x2="113.81" y2="132.21"/>
      <line class="cls-1" x1="113.87" y1="130.02" x2="113.81" y2="130.02"/>
      <line class="cls-1" x1="113.87" y1="114.03" x2="113.87" y2="116.22"/>
      <path class="cls-1" d="M113.88,116.19c.47-.65.47-1.54,0-2.19"/>
      <line class="cls-1" x1="113.87" y1="116.22" x2="113.81" y2="116.22"/>
      <line class="cls-1" x1="113.87" y1="114.03" x2="113.81" y2="114.03"/>
      <line class="cls-1" x1="29.54" y1="110.49" x2="29.57" y2="110.49"/>
      <line class="cls-1" x1="25.82" y1="110.49" x2="25.85" y2="110.49"/>
      <polyline class="cls-1" points="29.54 110.49 29.45 110.22 29.27 110.01 29.03 109.86 28.73 109.8"/>
      <polyline class="cls-1" points="28.73 109.8 26.66 109.8 26.36 109.86 26.12 110.01 25.94 110.22 25.85 110.49"/>
      <line class="cls-1" x1="29.57" y1="110.52" x2="25.82" y2="110.52"/>
      <path class="cls-1" d="M25.8,110.49s0,.03,0,.04"/>
      <path class="cls-1" d="M29.54,110.52s0-.03,0-.04"/>
      <line class="cls-1" x1="29.57" y1="110.52" x2="29.6" y2="110.97"/>
      <line class="cls-1" x1="25.82" y1="110.52" x2="25.76" y2="110.97"/>
      <polyline class="cls-1" points="114.95 127.65 114.95 128.43 114.26 128.43 114.26 129.06 114.95 129.06 114.95 129.84"/>
      <line class="cls-1" x1="114.23" y1="130.62" x2="114.23" y2="126.87"/>
      <path class="cls-1" d="M114.95,127.63c0-.41-.32-.76-.73-.79"/>
      <path class="cls-1" d="M114.22,130.62c.41-.04.73-.38.73-.79"/>
      <line class="cls-1" x1="114.23" y1="130.62" x2="114.17" y2="130.62"/>
      <line class="cls-1" x1="114.23" y1="126.87" x2="113.81" y2="126.81"/>
      <line class="cls-1" x1="113.66" y1="29.36" x2="113.81" y2="29.36"/>
      <polyline class="cls-1" points="113.66 93.32 113.81 93.32 113.81 93.17"/>
      <line class="cls-1" x1="113.81" y1="29.51" x2="113.81" y2="29.36"/>
      <line class="cls-1" x1="17.99" y1="93.32" x2="17.84" y2="93.32"/>
      <polyline class="cls-1" points="17.99 29.36 17.84 29.36 17.84 29.51"/>
      <line class="cls-1" x1="17.84" y1="93.17" x2="17.84" y2="93.32"/>
      <path class="cls-1" d="M105.23,19.74c0-.57-.46-1.03-1.04-1.03s-1.03.46-1.03,1.03.46,1.04,1.03,1.04,1.04-.46,1.04-1.04"/>
      <polyline class="cls-1" points="101.03 28.7 101.03 16.55 107.42 16.55 107.42 28.7"/>
      <path class="cls-1" d="M105.23,102.9c0-.57-.46-1.04-1.04-1.04s-1.03.46-1.03,1.04.46,1.03,1.03,1.03,1.04-.46,1.04-1.03"/>
      <polyline class="cls-1" points="107.42 93.98 107.42 106.13 101.03 106.13 101.03 93.98"/>
      <path class="cls-1" d="M28.46,102.9c0-.57-.46-1.04-1.03-1.04s-1.04.46-1.04,1.04.46,1.03,1.04,1.03,1.03-.46,1.03-1.03"/>
      <polyline class="cls-1" points="30.62 93.98 30.62 106.13 24.23 106.13 24.23 93.98"/>
      <path class="cls-1" d="M28.46,19.74c0-.57-.46-1.03-1.03-1.03s-1.04.46-1.04,1.03.46,1.04,1.04,1.04,1.03-.46,1.03-1.04"/>
      <polyline class="cls-1" points="24.23 28.7 24.23 16.55 30.62 16.55 30.62 28.7"/>
      <polyline class="cls-1" points="113.42 29.72 113.72 29.63 113.96 29.54 114.14 29.45 114.2 29.36 114.2 93.32"/>
      <line class="cls-1" x1="113.42" y1="92.96" x2="113.42" y2="29.72"/>
      <polyline class="cls-1" points="114.2 93.32 114.14 93.23 113.96 93.14 113.72 93.05 113.42 92.96 113.72 93.14"/>
      <line class="cls-1" x1="113.42" y1="29.72" x2="113.72" y2="29.54"/>
      <polyline class="cls-1" points="113.42 92.96 113.51 93.23 113.6 93.5 113.69 93.65 113.78 93.71 17.87 93.71"/>
      <line class="cls-1" x1="18.23" y1="92.96" x2="113.42" y2="92.96"/>
      <polyline class="cls-1" points="17.87 93.71 17.96 93.65 18.05 93.5 18.14 93.23 18.23 92.96 18.02 93.23"/>
      <line class="cls-1" x1="113.42" y1="92.96" x2="113.63" y2="93.23"/>
      <polyline class="cls-1" points="18.23 92.96 17.93 93.05 17.69 93.14 17.51 93.23 17.45 93.32 17.45 29.36"/>
      <line class="cls-1" x1="18.23" y1="29.72" x2="18.23" y2="92.96"/>
      <polyline class="cls-1" points="17.45 29.36 17.51 29.45 17.69 29.54 17.93 29.63 18.23 29.72 17.93 29.54"/>
      <line class="cls-1" x1="18.23" y1="92.96" x2="17.93" y2="93.14"/>
      <polyline class="cls-1" points="18.23 29.72 18.14 29.45 18.05 29.18 17.96 29.03 17.87 28.97 113.78 28.97"/>
      <line class="cls-1" x1="113.42" y1="29.72" x2="18.23" y2="29.72"/>
      <polyline class="cls-1" points="113.78 28.97 113.69 29.03 113.6 29.18 113.51 29.45 113.42 29.72 113.63 29.45"/>
      <line class="cls-1" x1="18.23" y1="29.72" x2="18.02" y2="29.45"/>
      <line class="cls-1" x1="113.81" y1="93.32" x2="114.2" y2="93.32"/>
      <line class="cls-1" x1="113.81" y1="29.36" x2="114.2" y2="29.36"/>
      <line class="cls-1" x1="17.87" y1="93.32" x2="17.87" y2="93.71"/>
      <line class="cls-1" x1="113.78" y1="93.32" x2="113.78" y2="93.71"/>
      <line class="cls-1" x1="17.84" y1="29.36" x2="17.45" y2="29.36"/>
      <line class="cls-1" x1="17.84" y1="93.32" x2="17.45" y2="93.32"/>
      <line class="cls-1" x1="113.78" y1="29.36" x2="113.78" y2="28.97"/>
      <line class="cls-1" x1="17.87" y1="29.36" x2="17.87" y2="28.97"/>
      <line class="cls-1" x1="22.61" y1="93.8" x2="41.87" y2="93.8"/>
      <line class="cls-1" x1="41.69" y1="93.98" x2="22.76" y2="93.98"/>
      <path class="cls-1" d="M22.58,93.78c0,.09.07.17.16.17"/>
      <path class="cls-1" d="M41.67,93.95c.09,0,.16-.07.16-.17"/>
      <line class="cls-1" x1="41.87" y1="93.71" x2="41.87" y2="93.8"/>
      <line class="cls-1" x1="22.61" y1="93.71" x2="22.61" y2="93.8"/>
      <line class="cls-1" x1="44.99" y1="93.8" x2="64.25" y2="93.8"/>
      <line class="cls-1" x1="64.1" y1="93.98" x2="45.17" y2="93.98"/>
      <path class="cls-1" d="M44.99,93.78c0,.09.07.17.17.17"/>
      <path class="cls-1" d="M64.08,93.95c.09,0,.16-.07.16-.17"/>
      <line class="cls-1" x1="64.25" y1="93.71" x2="64.25" y2="93.8"/>
      <line class="cls-1" x1="44.99" y1="93.71" x2="44.99" y2="93.8"/>
      <line class="cls-1" x1="67.4" y1="93.8" x2="86.66" y2="93.8"/>
      <line class="cls-1" x1="86.48" y1="93.98" x2="67.55" y2="93.98"/>
      <path class="cls-1" d="M67.37,93.78c0,.09.07.17.17.17"/>
      <path class="cls-1" d="M86.46,93.95c.09,0,.16-.07.16-.17"/>
      <line class="cls-1" x1="86.66" y1="93.71" x2="86.66" y2="93.8"/>
      <line class="cls-1" x1="67.4" y1="93.71" x2="67.4" y2="93.8"/>
      <line class="cls-1" x1="89.78" y1="93.8" x2="109.04" y2="93.8"/>
      <line class="cls-1" x1="108.89" y1="93.98" x2="89.96" y2="93.98"/>
      <path class="cls-1" d="M89.78,93.78c0,.09.07.17.16.17"/>
      <path class="cls-1" d="M108.87,93.95c.09,0,.17-.07.17-.17"/>
      <line class="cls-1" x1="109.04" y1="93.71" x2="109.04" y2="93.8"/>
      <line class="cls-1" x1="89.78" y1="93.71" x2="89.78" y2="93.8"/>
      <line class="cls-1" x1="114.29" y1="84.08" x2="114.29" y2="64.82"/>
      <line class="cls-1" x1="114.44" y1="64.97" x2="114.44" y2="83.9"/>
      <path class="cls-1" d="M114.27,84.05c.09,0,.16-.07.16-.17"/>
      <path class="cls-1" d="M114.44,64.95c0-.09-.07-.17-.16-.17"/>
      <line class="cls-1" x1="114.2" y1="64.82" x2="114.29" y2="64.82"/>
      <line class="cls-1" x1="114.2" y1="84.08" x2="114.29" y2="84.08"/>
      <line class="cls-1" x1="41.87" y1="28.88" x2="22.61" y2="28.88"/>
      <line class="cls-1" x1="22.76" y1="28.7" x2="41.69" y2="28.7"/>
      <path class="cls-1" d="M41.84,28.86c0-.09-.07-.17-.16-.17"/>
      <path class="cls-1" d="M22.74,28.7c-.09,0-.16.07-.16.17"/>
      <line class="cls-1" x1="22.61" y1="28.97" x2="22.61" y2="28.88"/>
      <line class="cls-1" x1="41.87" y1="28.97" x2="41.87" y2="28.88"/>
      <line class="cls-1" x1="86.66" y1="28.88" x2="67.4" y2="28.88"/>
      <line class="cls-1" x1="67.55" y1="28.7" x2="86.48" y2="28.7"/>
      <path class="cls-1" d="M86.63,28.86c0-.09-.07-.17-.16-.17"/>
      <path class="cls-1" d="M67.53,28.7c-.09,0-.17.07-.17.17"/>
      <line class="cls-1" x1="67.4" y1="28.97" x2="67.4" y2="28.88"/>
      <line class="cls-1" x1="86.66" y1="28.97" x2="86.66" y2="28.88"/>
      <line class="cls-1" x1="64.25" y1="28.88" x2="44.99" y2="28.88"/>
      <line class="cls-1" x1="45.17" y1="28.7" x2="64.1" y2="28.7"/>
      <path class="cls-1" d="M64.25,28.86c0-.09-.07-.17-.16-.17"/>
      <path class="cls-1" d="M45.15,28.7c-.09,0-.17.07-.17.17"/>
      <line class="cls-1" x1="44.99" y1="28.97" x2="44.99" y2="28.88"/>
      <line class="cls-1" x1="64.25" y1="28.97" x2="64.25" y2="28.88"/>
      <line class="cls-1" x1="114.29" y1="57.89" x2="114.29" y2="38.63"/>
      <line class="cls-1" x1="114.44" y1="38.78" x2="114.44" y2="57.74"/>
      <path class="cls-1" d="M114.27,57.89c.09,0,.16-.07.16-.17"/>
      <path class="cls-1" d="M114.44,38.76c0-.09-.07-.16-.16-.16"/>
      <line class="cls-1" x1="114.2" y1="38.63" x2="114.29" y2="38.63"/>
      <line class="cls-1" x1="114.2" y1="57.89" x2="114.29" y2="57.89"/>
      <line class="cls-1" x1="109.04" y1="28.88" x2="89.78" y2="28.88"/>
      <line class="cls-1" x1="89.96" y1="28.7" x2="108.89" y2="28.7"/>
      <path class="cls-1" d="M109.04,28.86c0-.09-.07-.17-.17-.17"/>
      <path class="cls-1" d="M89.94,28.7c-.09,0-.16.07-.16.17"/>
      <line class="cls-1" x1="89.78" y1="28.97" x2="89.78" y2="28.88"/>
      <line class="cls-1" x1="109.04" y1="28.97" x2="109.04" y2="28.88"/>
      <line class="cls-1" x1="17.36" y1="65.57" x2="17.36" y2="84.83"/>
      <line class="cls-1" x1="17.21" y1="84.65" x2="17.21" y2="65.72"/>
      <path class="cls-1" d="M17.34,65.54c-.09,0-.17.07-.17.17"/>
      <path class="cls-1" d="M17.18,84.63c0,.09.07.17.17.17"/>
      <line class="cls-1" x1="17.45" y1="84.83" x2="17.36" y2="84.83"/>
      <line class="cls-1" x1="17.45" y1="65.57" x2="17.36" y2="65.57"/>
      <line class="cls-1" x1="17.36" y1="38.63" x2="17.36" y2="57.89"/>
      <line class="cls-1" x1="17.21" y1="57.74" x2="17.21" y2="38.78"/>
      <path class="cls-1" d="M17.34,38.6c-.09,0-.17.07-.17.16"/>
      <path class="cls-1" d="M17.18,57.72c0,.09.07.17.17.17"/>
      <line class="cls-1" x1="17.45" y1="57.89" x2="17.36" y2="57.89"/>
      <line class="cls-1" x1="17.45" y1="38.63" x2="17.36" y2="38.63"/>
      <path class="cls-1" d="M111.5,91.08c0-.7-.57-1.28-1.27-1.28s-1.28.57-1.28,1.28.57,1.28,1.28,1.28,1.27-.57,1.27-1.28"/>
      <path class="cls-1" d="M111.02,91.08c0-.44-.36-.79-.79-.79s-.8.36-.8.79.36.79.8.79.79-.36.79-.79"/>
      <path class="cls-1" d="M110.39,91.58c-.04-.05-.1-.09-.16-.09s-.13.03-.16.09"/>
      <path class="cls-1" d="M109.86,91.49s0,.11.04.14c.05.03.11.01.14-.03"/>
      <path class="cls-1" d="M109.86,91.47c.03-.06.03-.13,0-.18-.03-.06-.09-.09-.16-.1"/>
      <path class="cls-1" d="M109.71,90.98c-.06,0-.1.05-.1.1s.04.1.1.1"/>
      <path class="cls-1" d="M109.7,90.98c.06,0,.12-.04.16-.1.03-.06.03-.13,0-.18"/>
      <path class="cls-1" d="M110.04,90.58s-.09-.06-.14-.03c-.05.03-.07.09-.04.14"/>
      <path class="cls-1" d="M110.06,90.56c.04.05.1.09.16.09s.13-.03.16-.09"/>
      <path class="cls-1" d="M110.56,90.68s0-.11-.04-.14c-.05-.03-.11-.01-.14.03"/>
      <path class="cls-1" d="M110.56,90.7c-.03.06-.03.13,0,.18.03.06.09.09.16.1"/>
      <path class="cls-1" d="M110.74,91.19c.06,0,.1-.05.1-.1s-.04-.1-.1-.1"/>
      <path class="cls-1" d="M110.72,91.19c-.06,0-.12.04-.16.1-.03.06-.03.13,0,.18"/>
      <path class="cls-1" d="M110.38,91.59s.09.06.14.03c.05-.03.07-.09.04-.14"/>
      <path class="cls-1" d="M67.07,91.08c0-.7-.57-1.28-1.27-1.28s-1.28.57-1.28,1.28.57,1.28,1.28,1.28,1.27-.57,1.27-1.28"/>
      <path class="cls-1" d="M66.59,91.08c0-.44-.36-.79-.79-.79s-.8.36-.8.79.36.79.8.79.79-.36.79-.79"/>
      <path class="cls-1" d="M65.96,91.58c-.04-.05-.1-.09-.16-.09s-.13.03-.16.09"/>
      <path class="cls-1" d="M65.46,91.49s0,.11.04.14c.05.03.11.01.14-.03"/>
      <path class="cls-1" d="M65.46,91.47c.03-.06.03-.13,0-.18s-.09-.09-.16-.1"/>
      <path class="cls-1" d="M65.28,90.98c-.06,0-.1.05-.1.1s.04.1.1.1"/>
      <path class="cls-1" d="M65.3,90.98c.07,0,.12-.04.16-.1s.03-.13,0-.18"/>
      <path class="cls-1" d="M65.64,90.58s-.09-.06-.14-.03c-.05.03-.07.09-.04.14"/>
      <path class="cls-1" d="M65.63,90.56c.04.05.1.09.16.09s.13-.03.16-.09"/>
      <path class="cls-1" d="M66.16,90.68s0-.11-.04-.14c-.05-.03-.11-.01-.14.03"/>
      <path class="cls-1" d="M66.16,90.7c-.03.06-.03.13,0,.18.03.06.09.09.16.1"/>
      <path class="cls-1" d="M66.34,91.19c.06,0,.1-.05.1-.1s-.04-.1-.1-.1"/>
      <path class="cls-1" d="M66.32,91.19c-.07,0-.12.04-.16.1-.03.06-.03.13,0,.18"/>
      <path class="cls-1" d="M65.98,91.59s.09.06.14.03c.05-.03.07-.09.04-.14"/>
      <path class="cls-1" d="M22.67,91.08c0-.7-.57-1.28-1.28-1.28s-1.28.57-1.28,1.28.57,1.28,1.28,1.28,1.28-.57,1.28-1.28"/>
      <path class="cls-1" d="M22.19,91.08c0-.44-.36-.79-.79-.79s-.79.36-.79.79.36.79.79.79.79-.36.79-.79"/>
      <path class="cls-1" d="M21.56,91.58c-.04-.05-.1-.09-.16-.09s-.13.03-.16.09"/>
      <path class="cls-1" d="M21.06,91.49s0,.11.04.14c.05.03.11.01.14-.03"/>
      <path class="cls-1" d="M21.03,91.47c.03-.06.03-.13,0-.18s-.09-.09-.16-.1"/>
      <path class="cls-1" d="M20.88,90.98c-.06,0-.1.05-.1.1s.04.1.1.1"/>
      <path class="cls-1" d="M20.87,90.98c.06,0,.12-.04.16-.1s.03-.13,0-.18"/>
      <path class="cls-1" d="M21.24,90.58s-.09-.06-.14-.03c-.05.03-.07.09-.04.14"/>
      <path class="cls-1" d="M21.23,90.56c.04.05.1.09.16.09s.13-.03.16-.09"/>
      <path class="cls-1" d="M21.76,90.68s0-.11-.04-.14c-.05-.03-.11-.01-.14.03"/>
      <path class="cls-1" d="M21.76,90.7c-.03.06-.03.13,0,.18s.09.09.16.1"/>
      <path class="cls-1" d="M21.91,91.19c.06,0,.1-.05.1-.1s-.04-.1-.1-.1"/>
      <path class="cls-1" d="M21.92,91.19c-.07,0-.12.04-.16.1s-.03.13,0,.18"/>
      <path class="cls-1" d="M21.58,91.59s.09.06.14.03c.05-.03.07-.09.04-.14"/>
      <path class="cls-1" d="M22.67,31.56c0-.7-.57-1.28-1.28-1.28s-1.28.57-1.28,1.28.57,1.27,1.28,1.27,1.28-.57,1.28-1.27"/>
      <path class="cls-1" d="M22.19,31.56c0-.44-.36-.79-.79-.79s-.79.36-.79.79.36.79.79.79.79-.36.79-.79"/>
      <path class="cls-1" d="M21.56,32.09c-.04-.05-.1-.09-.16-.09s-.13.03-.16.09"/>
      <path class="cls-1" d="M21.06,31.97s0,.11.04.14c.05.03.11.01.14-.03"/>
      <path class="cls-1" d="M21.03,31.98c.03-.06.03-.13,0-.18s-.09-.09-.16-.1"/>
      <path class="cls-1" d="M20.88,31.46c-.06,0-.1.05-.1.1s.04.1.1.1"/>
      <path class="cls-1" d="M20.87,31.46c.06,0,.12-.04.16-.1s.03-.13,0-.18"/>
      <path class="cls-1" d="M21.24,31.06s-.09-.06-.14-.03c-.05.03-.07.09-.04.14"/>
      <path class="cls-1" d="M21.23,31.07c.04.05.1.09.16.09s.13-.03.16-.09"/>
      <path class="cls-1" d="M21.76,31.16s0-.11-.04-.14c-.05-.03-.11-.01-.14.03"/>
      <path class="cls-1" d="M21.76,31.18c-.03.06-.03.13,0,.18s.09.09.16.1"/>
      <path class="cls-1" d="M21.91,31.67c.06,0,.1-.05.1-.1s-.04-.1-.1-.1"/>
      <path class="cls-1" d="M21.92,31.7c-.07,0-.12.04-.16.1s-.03.13,0,.18"/>
      <path class="cls-1" d="M21.58,32.07s.09.06.14.03c.05-.03.07-.09.04-.14"/>
      <path class="cls-1" d="M67.07,31.56c0-.7-.57-1.28-1.27-1.28s-1.28.57-1.28,1.28.57,1.27,1.28,1.27,1.27-.57,1.27-1.27"/>
      <path class="cls-1" d="M66.59,31.56c0-.44-.36-.79-.79-.79s-.8.36-.8.79.36.79.8.79.79-.36.79-.79"/>
      <path class="cls-1" d="M65.96,32.09c-.04-.05-.1-.09-.16-.09s-.13.03-.16.09"/>
      <path class="cls-1" d="M65.46,31.97s0,.11.04.14c.05.03.11.01.14-.03"/>
      <path class="cls-1" d="M65.46,31.98c.03-.06.03-.13,0-.18s-.09-.09-.16-.1"/>
      <path class="cls-1" d="M65.28,31.46c-.06,0-.1.05-.1.1s.04.1.1.1"/>
      <path class="cls-1" d="M65.3,31.46c.07,0,.12-.04.16-.1s.03-.13,0-.18"/>
      <path class="cls-1" d="M65.64,31.06s-.09-.06-.14-.03c-.05.03-.07.09-.04.14"/>
      <path class="cls-1" d="M65.63,31.07c.04.05.1.09.16.09s.13-.03.16-.09"/>
      <path class="cls-1" d="M66.16,31.16s0-.11-.04-.14c-.05-.03-.11-.01-.14.03"/>
      <path class="cls-1" d="M66.16,31.18c-.03.06-.03.13,0,.18.03.06.09.09.16.1"/>
      <path class="cls-1" d="M66.34,31.67c.06,0,.1-.05.1-.1s-.04-.1-.1-.1"/>
      <path class="cls-1" d="M66.32,31.7c-.07,0-.12.04-.16.1-.03.06-.03.13,0,.18"/>
      <path class="cls-1" d="M65.98,32.07s.09.06.14.03c.05-.03.07-.09.04-.14"/>
      <path class="cls-1" d="M111.5,31.56c0-.7-.57-1.28-1.27-1.28s-1.28.57-1.28,1.28.57,1.27,1.28,1.27,1.27-.57,1.27-1.27"/>
      <path class="cls-1" d="M111.02,31.56c0-.44-.36-.79-.79-.79s-.8.36-.8.79.36.79.8.79.79-.36.79-.79"/>
      <path class="cls-1" d="M110.39,32.09c-.04-.05-.1-.09-.16-.09s-.13.03-.16.09"/>
      <path class="cls-1" d="M109.86,31.97s0,.11.04.14c.05.03.11.01.14-.03"/>
      <path class="cls-1" d="M109.86,31.98c.03-.06.03-.13,0-.18-.03-.06-.09-.09-.16-.1"/>
      <path class="cls-1" d="M109.71,31.46c-.06,0-.1.05-.1.1s.04.1.1.1"/>
      <path class="cls-1" d="M109.7,31.46c.06,0,.12-.04.16-.1.03-.06.03-.13,0-.18"/>
      <path class="cls-1" d="M110.04,31.06s-.09-.06-.14-.03c-.05.03-.07.09-.04.14"/>
      <path class="cls-1" d="M110.06,31.07c.04.05.1.09.16.09s.13-.03.16-.09"/>
      <path class="cls-1" d="M110.56,31.16s0-.11-.04-.14c-.05-.03-.11-.01-.14.03"/>
      <path class="cls-1" d="M110.56,31.18c-.03.06-.03.13,0,.18.03.06.09.09.16.1"/>
      <path class="cls-1" d="M110.74,31.67c.06,0,.1-.05.1-.1s-.04-.1-.1-.1"/>
      <path class="cls-1" d="M110.72,31.7c-.06,0-.12.04-.16.1-.03.06-.03.13,0,.18"/>
      <path class="cls-1" d="M110.38,32.07s.09.06.14.03c.05-.03.07-.09.04-.14"/>
      <path class="cls-1" d="M114.2,91.41c.04-.22.04-.44,0-.66"/>
      <path class="cls-1" d="M114.2,31.89c.04-.22.04-.44,0-.66"/>
      <path class="cls-1" d="M29.51,86.98c.03-.2.03-.41,0-.61"/>
      <path class="cls-1" d="M25.81,86.37c-.03.2-.03.41,0,.61"/>
      <line class="cls-1" x1="29.54" y1="86.99" x2="28.73" y2="86.99"/>
      <polyline class="cls-1" points="28.73 86.99 26.66 86.99 25.85 86.99"/>
      <polyline class="cls-1" points="25.85 86.36 26.66 86.36 28.73 86.36 29.54 86.36"/>
      <path class="cls-1" d="M26.61,86.98c.14.47.56.79,1.05.79s.91-.32,1.05-.79"/>
      <path class="cls-1" d="M28.71,86.37c-.14-.47-.56-.79-1.05-.79s-.91.32-1.05.79"/>
      <path class="cls-1" d="M29.54,86.67c0-1.04-.84-1.88-1.88-1.88s-1.88.84-1.88,1.88.84,1.88,1.88,1.88,1.88-.84,1.88-1.88"/>
      <path class="cls-1" d="M29.57,86.67c0-1.05-.85-1.9-1.9-1.9s-1.91.85-1.91,1.9.85,1.9,1.91,1.9,1.9-.85,1.9-1.9"/>
      <line class="cls-1" x1="114.26" y1="88.46" x2="114.26" y2="88.49"/>
      <line class="cls-1" x1="114.26" y1="84.74" x2="114.26" y2="84.77"/>
      <polyline class="cls-1" points="114.26 88.46 114.56 88.37 114.77 88.19 114.92 87.95 114.95 87.65"/>
      <polyline class="cls-1" points="114.95 87.65 114.95 85.58 114.92 85.28 114.77 85.04 114.56 84.86 114.26 84.77"/>
      <line class="cls-1" x1="114.23" y1="88.49" x2="114.23" y2="84.74"/>
      <path class="cls-1" d="M114.26,84.72s-.03,0-.04,0"/>
      <path class="cls-1" d="M114.22,88.49s.03,0,.04,0"/>
      <line class="cls-1" x1="114.23" y1="88.49" x2="114.2" y2="88.49"/>
      <line class="cls-1" x1="114.23" y1="84.74" x2="114.2" y2="84.74"/>
      <line class="cls-1" x1="17.36" y1="28.97" x2="4.04" y2="28.97"/>
      <line class="cls-1" x1="17.36" y1="93.71" x2="4.04" y2="93.71"/>
      <line class="cls-1" x1="5.06" y1="31.52" x2="5.06" y2="58.37"/>
      <line class="cls-1" x1="5.06" y1="91.16" x2="5.06" y2="31.01"/>
      <polygon points="4.64 31.52 5.48 31.52 5.06 28.97 4.64 31.52"/>
      <polygon class="cls-2" points="4.64 31.52 5.48 31.52 5.06 28.97 4.64 31.52"/>
      <polygon points="4.64 91.16 5.48 91.16 5.06 93.71 4.64 91.16"/>
      <polygon class="cls-2" points="4.64 91.16 5.48 91.16 5.06 93.71 4.64 91.16"/>
    </g>
    <text class="cls-3" transform="translate(4.32 64.25) rotate(-90)"><tspan x="0" y="0">202</tspan></text>
    <g>
      <line class="cls-1" x1="17.45" y1="28.85" x2="17.45" y2="4.04"/>
      <line class="cls-1" x1="114.2" y1="28.85" x2="114.2" y2="4.04"/>
      <line class="cls-1" x1="20" y1="5.06" x2="111.65" y2="5.06"/>
      <line class="cls-1" x1="111.65" y1="5.06" x2="68.81" y2="5.06"/>
      <polygon points="20 4.64 20 5.48 17.45 5.06 20 4.64"/>
      <polygon class="cls-2" points="20 4.64 20 5.48 17.45 5.06 20 4.64"/>
      <polygon points="111.65 4.64 111.65 5.48 114.2 5.06 111.65 4.64"/>
      <polygon class="cls-2" points="111.65 4.64 111.65 5.48 114.2 5.06 111.65 4.64"/>
      <text class="cls-3" transform="translate(61.93 4.32)"><tspan x="0" y="0">302</tspan></text>
      <line class="cls-1" x1="17.72" y1="110.97" x2="8.63" y2="110.97"/>
      <line class="cls-1" x1="18.08" y1="133.86" x2="8.63" y2="133.86"/>
      <line class="cls-1" x1="9.65" y1="113.52" x2="9.65" y2="120.39"/>
      <line class="cls-1" x1="9.65" y1="131.31" x2="9.65" y2="113.52"/>
      <polygon points="9.2 113.52 10.07 113.52 9.65 110.97 9.2 113.52"/>
      <polygon class="cls-2" points="9.2 113.52 10.07 113.52 9.65 110.97 9.2 113.52"/>
      <polygon points="9.2 131.31 10.07 131.31 9.65 133.86 9.2 131.31"/>
      <polygon class="cls-2" points="9.2 131.31 10.07 131.31 9.65 133.86 9.2 131.31"/>
      <text class="cls-3" transform="translate(8.91 124.35) rotate(-90)"><tspan x="0" y="0">72</tspan></text>
    </g>
  </g>
</svg>