<?xml version="1.0" encoding="UTF-8"?>
<svg id="Layer_2" data-name="Layer 2" xmlns="http://www.w3.org/2000/svg" xmlns:xlink="http://www.w3.org/1999/xlink" viewBox="0 0 173.64 172.72">
  <defs>
    <style>
      .cls-1 {
        letter-spacing: 0em;
      }

      .cls-2 {
        clip-path: url(#clippath-6);
      }

      .cls-3 {
        clip-path: url(#clippath-7);
      }

      .cls-4 {
        letter-spacing: -.02em;
      }

      .cls-5 {
        letter-spacing: .02em;
      }

      .cls-6 {
        clip-path: url(#clippath-4);
      }

      .cls-7 {
        letter-spacing: .02em;
      }

      .cls-8 {
        stroke-miterlimit: 8;
      }

      .cls-8, .cls-9, .cls-10, .cls-11, .cls-12 {
        fill: none;
      }

      .cls-8, .cls-10, .cls-11, .cls-12 {
        stroke: #000;
      }

      .cls-8, .cls-11 {
        stroke-linecap: round;
      }

      .cls-13 {
        letter-spacing: 0em;
      }

      .cls-14 {
        clip-path: url(#clippath-9);
      }

      .cls-15 {
        clip-path: url(#clippath-10);
      }

      .cls-16, .cls-17 {
        fill: #fff;
      }

      .cls-17, .cls-18 {
        fill-rule: evenodd;
      }

      .cls-10 {
        stroke-width: .5px;
      }

      .cls-10, .cls-11, .cls-12 {
        stroke-linejoin: round;
      }

      .cls-19 {
        clip-path: url(#clippath-1);
      }

      .cls-20 {
        letter-spacing: 0em;
      }

      .cls-21 {
        clip-path: url(#clippath-5);
      }

      .cls-22 {
        letter-spacing: 0em;
      }

      .cls-23 {
        clip-path: url(#clippath-8);
      }

      .cls-24 {
        clip-path: url(#clippath-3);
      }

      .cls-25 {
        letter-spacing: .02em;
      }

      .cls-26 {
        clip-path: url(#clippath-12);
      }

      .cls-27 {
        clip-path: url(#clippath-14);
      }

      .cls-28 {
        letter-spacing: 0em;
      }

      .cls-29 {
        letter-spacing: 0em;
      }

      .cls-30 {
        letter-spacing: 0em;
      }

      .cls-31 {
        font-size: 8.04px;
      }

      .cls-31, .cls-32 {
        font-family: ArialMT, Arial;
      }

      .cls-33 {
        letter-spacing: 0em;
      }

      .cls-34 {
        clip-path: url(#clippath-2);
      }

      .cls-35 {
        clip-path: url(#clippath-13);
      }

      .cls-36 {
        letter-spacing: 0em;
      }

      .cls-37 {
        letter-spacing: 0em;
      }

      .cls-38 {
        letter-spacing: 0em;
      }

      .cls-39 {
        letter-spacing: 0em;
      }

      .cls-40 {
        clip-path: url(#clippath);
      }

      .cls-41 {
        font-family: Inter-SemiBold, Inter;
        font-size: 7px;
        font-variation-settings: 'wght' 600, 'slnt' 0;
        font-weight: 600;
      }

      .cls-32 {
        font-size: 6.96px;
      }

      .cls-42 {
        letter-spacing: -.01em;
      }
    </style>
    <clipPath id="clippath">
      <rect class="cls-9" x="3.96" y="15.6" width="7.44" height="80.88"/>
    </clipPath>
    <clipPath id="clippath-1">
      <rect class="cls-9" x="3.96" y="15.6" width="7.44" height="80.88"/>
    </clipPath>
    <clipPath id="clippath-2">
      <rect class="cls-9" x="3.96" y="15.6" width="7.44" height="80.88"/>
    </clipPath>
    <clipPath id="clippath-3">
      <rect class="cls-9" y="116.4" width="7.56" height="35.76"/>
    </clipPath>
    <clipPath id="clippath-4">
      <rect class="cls-9" y="116.4" width="7.56" height="35.76"/>
    </clipPath>
    <clipPath id="clippath-5">
      <rect class="cls-9" y="116.4" width="7.56" height="35.76"/>
    </clipPath>
    <clipPath id="clippath-6">
      <rect class="cls-9" x="88.2" width="85.44" height="9.72"/>
    </clipPath>
    <clipPath id="clippath-7">
      <rect class="cls-9" x="88.2" width="85.44" height="9.72"/>
    </clipPath>
    <clipPath id="clippath-8">
      <rect class="cls-9" x="40.68" y="160.32" width="66.96" height="6.72"/>
    </clipPath>
    <clipPath id="clippath-9">
      <rect class="cls-9" x="40.68" y="160.32" width="66.96" height="6.72"/>
    </clipPath>
    <clipPath id="clippath-10">
      <rect class="cls-9" x="40.68" y="160.32" width="66.96" height="6.72"/>
    </clipPath>
    <clipPath id="clippath-12">
      <rect class="cls-9" x="141" y="120.72" width="7.56" height="35.64"/>
    </clipPath>
    <clipPath id="clippath-13">
      <rect class="cls-9" x="141" y="120.72" width="7.56" height="35.64"/>
    </clipPath>
    <clipPath id="clippath-14">
      <rect class="cls-9" x="141" y="120.72" width="7.56" height="35.64"/>
    </clipPath>
  </defs>
  <g id="Layer_1-2" data-name="Layer 1">
    <g>
      <g>
        <path class="cls-17" d="M74.32,7.67c-27.27,0-49.38,21.66-49.38,48.38s22.1,48.38,49.38,48.38,49.38-21.66,49.38-48.38S101.6,7.67,74.32,7.67"/>
        <ellipse class="cls-11" cx="74.32" cy="56.05" rx="49.38" ry="48.38"/>
        <path class="cls-17" d="M74.3,13.47c-24,0-43.45,19.05-43.45,42.55s19.45,42.55,43.45,42.55,43.45-19.05,43.45-42.55S98.3,13.47,74.3,13.47"/>
        <ellipse class="cls-11" cx="74.3" cy="56.02" rx="43.45" ry="42.55"/>
        <path class="cls-17" d="M47.85,41.14c5.44-9.27,15.52-14.99,26.45-14.99s21,5.72,26.44,14.99l11.23-6.32c-7.75-13.21-22.12-21.35-37.68-21.35s-29.93,8.14-37.68,21.35l11.23,6.32Z"/>
        <path class="cls-8" d="M47.85,41.14c5.44-9.27,15.52-14.99,26.45-14.99s21,5.72,26.44,14.99l11.23-6.32c-7.75-13.21-22.12-21.35-37.68-21.35s-29.93,8.14-37.68,21.35l11.23,6.32Z"/>
      </g>
      <polygon class="cls-17" points="115.1 133.82 115.41 150.32 119.78 150.32 120.1 133.82 115.1 133.82"/>
      <polygon class="cls-8" points="115.1 133.82 115.41 150.32 119.78 150.32 120.1 133.82 115.1 133.82"/>
      <polygon class="cls-17" points="28.55 133.82 28.86 150.32 33.24 150.32 33.55 133.82 28.55 133.82"/>
      <polygon class="cls-8" points="28.55 133.82 28.86 150.32 33.24 150.32 33.55 133.82 28.55 133.82"/>
      <rect class="cls-16" x="33.05" y="124.87" width="82.5" height="17.6"/>
      <rect class="cls-8" x="33.05" y="124.87" width="82.5" height="17.6"/>
      <polygon class="cls-17" points="24.95 125.12 31.18 123.57 117.47 123.57 123.7 125.12 24.95 125.12"/>
      <polygon class="cls-8" points="24.95 125.12 31.18 123.57 117.47 123.57 123.7 125.12 24.95 125.12"/>
      <line class="cls-10" x1="59.9" y1="7.67" x2="10.5" y2="7.72"/>
      <line class="cls-10" x1="59.9" y1="104.42" x2="10.5" y2="104.47"/>
      <line class="cls-12" x1="12.9" y1="16.47" x2="12.95" y2="95.42"/>
      <polygon class="cls-18" points="14.95 94.42 12.95 104.42 10.95 94.42 14.95 94.42"/>
      <polygon class="cls-18" points="10.91 17.47 12.9 7.47 14.91 17.47 10.91 17.47"/>
      <g class="cls-40">
        <text class="cls-41" transform="translate(10.68 61.8) rotate(-90)"><tspan class="cls-39" x="0" y="0">14</tspan><tspan class="cls-22" x="7.97" y="0">0</tspan></text>
      </g>
      <g class="cls-19">
        <text class="cls-32" transform="translate(10.68 50.16) rotate(-90)"><tspan x="0" y="0"> </tspan></text>
      </g>
      <g class="cls-34">
        <text class="cls-32" transform="translate(18.96 56.04) rotate(-90)"><tspan x="0" y="0"> </tspan></text>
      </g>
      <line class="cls-10" x1="20.9" y1="125.32" x2="1.05" y2="125.37"/>
      <line class="cls-10" x1="30.95" y1="142.52" x2="1.05" y2="142.57"/>
      <line class="cls-12" x1="3.7" y1="108.47" x2="3.72" y2="116.47"/>
      <polygon class="cls-18" points="5.72 115.46 3.75 125.47 1.72 115.48 5.72 115.46"/>
      <line class="cls-12" x1="3.7" y1="159.42" x2="3.72" y2="151.42"/>
      <polygon class="cls-18" points="1.72 152.41 3.75 142.42 5.72 152.43 1.72 152.41"/>
      <g class="cls-24">
        <text class="cls-41" transform="translate(6.72 138.12) rotate(-90)"><tspan class="cls-39" x="0" y="0">4</tspan><tspan x="4.63" y="0">0</tspan></text>
      </g>
      <g class="cls-6">
        <text class="cls-32" transform="translate(6.72 130.32) rotate(-90)"><tspan x="0" y="0"> </tspan></text>
      </g>
      <g class="cls-21">
        <text class="cls-32" transform="translate(15 134.28) rotate(-90)"><tspan x="0" y="0"> </tspan></text>
      </g>
      <g class="cls-2">
        <text class="cls-41" transform="translate(101.4 7.56)"><tspan class="cls-29" x="0" y="0">D</tspan><tspan class="cls-42" x="5.04" y="0">i</tspan><tspan class="cls-7" x="6.77" y="0">m</tspan><tspan class="cls-39" x="13.17" y="0">en</tspan><tspan class="cls-33" x="21.53" y="0">s</tspan><tspan class="cls-13" x="25.43" y="0">i</tspan><tspan class="cls-39" x="27.26" y="0">o</tspan><tspan class="cls-4" x="31.48" y="0">n</tspan><tspan class="cls-33" x="35.63" y="0">s</tspan><tspan class="cls-38" x="39.52" y="0"> </tspan><tspan class="cls-13" x="41.29" y="0">i</tspan><tspan class="cls-4" x="43.12" y="0">n</tspan><tspan class="cls-36" x="47.26" y="0"> </tspan><tspan class="cls-20" x="48.95" y="0">m</tspan><tspan x="55.24" y="0">m</tspan></text>
      </g>
      <g class="cls-3">
        <text class="cls-31" transform="translate(167.16 7.56)"><tspan x="0" y="0"> </tspan></text>
      </g>
      <line class="cls-10" x1="32.2" y1="150.82" x2="32.25" y2="172.22"/>
      <line class="cls-10" x1="116.5" y1="151.32" x2="116.5" y2="172.72"/>
      <line class="cls-12" x1="41.3" y1="169.08" x2="107.35" y2="169.11"/>
      <polygon class="cls-18" points="106.35 167.11 116.35 169.12 106.35 171.11 106.35 167.11"/>
      <polygon class="cls-18" points="42.3 171.08 32.3 169.07 42.3 167.08 42.3 171.08"/>
      <g class="cls-23">
        <text class="cls-41" transform="translate(49.08 166.92)"><tspan class="cls-37" x="0" y="0">H</tspan><tspan class="cls-39" x="5.21" y="0">o</tspan><tspan class="cls-13" x="9.44" y="0">l</tspan><tspan class="cls-1" x="11.27" y="0">e</tspan><tspan class="cls-28" x="15.39" y="0"> </tspan><tspan class="cls-30" x="17.12" y="0">s</tspan><tspan class="cls-5" x="20.97" y="0">i</tspan><tspan class="cls-22" x="22.93" y="0">z</tspan><tspan class="cls-39" x="26.86" y="0">e</tspan><tspan x="30.98" y="0"> </tspan></text>
      </g>
      <g class="cls-14">
        <text class="cls-41" transform="translate(79.8 166.92)"><tspan class="cls-39" x="0" y="0">12</tspan><tspan class="cls-30" x="7.66" y="0">8</tspan></text>
      </g>
      <g class="cls-15">
        <text class="cls-41" transform="translate(91.32 166.92)"><tspan class="cls-25" x="0" y="0">±</tspan><tspan x="4.85" y="0">1</tspan></text>
      </g>
      <line class="cls-10" x1="148.55" y1="125.32" x2="128.65" y2="125.37"/>
      <line class="cls-10" x1="148.55" y1="150.52" x2="121.65" y2="150.57"/>
      <line class="cls-12" x1="144.7" y1="108.47" x2="144.72" y2="116.47"/>
      <polygon class="cls-18" points="146.72 115.46 144.75 125.47 142.72 115.48 146.72 115.46"/>
      <line class="cls-12" x1="144.7" y1="167.42" x2="144.72" y2="159.42"/>
      <polygon class="cls-18" points="142.72 160.41 144.75 150.42 146.72 160.43 142.72 160.41"/>
      <g class="cls-26">
        <text class="cls-41" transform="translate(147.72 142.44) rotate(-90)"><tspan class="cls-1" x="0" y="0">6</tspan><tspan x="4.51" y="0">6</tspan></text>
      </g>
      <g class="cls-35">
        <text class="cls-32" transform="translate(147.72 134.64) rotate(-90)"><tspan x="0" y="0"> </tspan></text>
      </g>
      <g class="cls-27">
        <text class="cls-32" transform="translate(156 138.48) rotate(-90)"><tspan x="0" y="0"> </tspan></text>
      </g>
    </g>
  </g>
</svg>