<svg viewBox="0 0 1200 630" xmlns="http://www.w3.org/2000/svg">
  <defs>
    <linearGradient id="bgGradient" x1="0%" y1="0%" x2="100%" y2="100%">
      <stop offset="0%" style="stop-color:#1e293b;stop-opacity:1" />
      <stop offset="50%" style="stop-color:#334155;stop-opacity:1" />
      <stop offset="100%" style="stop-color:#1e293b;stop-opacity:1" />
    </linearGradient>
    <filter id="glow">
      <feGaussianBlur stdDeviation="3" result="coloredBlur"/>
      <feMerge> 
        <feMergeNode in="coloredBlur"/>
        <feMergeNode in="SourceGraphic"/>
      </feMerge>
    </filter>
  </defs>
  
  <!-- Background -->
  <rect width="1200" height="630" fill="url(#bgGradient)"/>
  
  <!-- Background pattern/texture -->
  <circle cx="1000" cy="100" r="80" fill="#f0ea45" opacity="0.1"/>
  <circle cx="200" cy="500" r="60" fill="#f0ea45" opacity="0.05"/>
  <circle cx="1100" cy="450" r="100" fill="#f0ea45" opacity="0.08"/>
  
  <!-- PowerFlex Logo (centered) -->
  <g transform="translate(300, 180)">
    <!-- PowerFlex brand text -->
    <g fill="#f0ea45">
      <path d="M0,0h19.21c13.05,0,19.45,7.23,19.45,20.52v8.18c0,13.28-6.4,20.52-19.45,20.52h-6.17v33.8H0V0ZM19.21,37.36c4.15,0,6.4-1.9,6.4-7.83v-9.84c0-5.93-2.25-7.83-6.4-7.83h-6.17v25.5h6.17Z"/>
      <path d="M44.12,64.52v-23.48c0-12.57,6.64-19.69,18.5-19.69s18.5,7.12,18.5,19.69v23.48c0,12.57-6.64,19.69-18.5,19.69s-18.5-7.12-18.5-19.69ZM68.55,65.71v-25.86c0-4.15-1.3-7.35-5.93-7.35s-5.93,3.2-5.93,7.35v25.86c0,4.27,1.42,7.35,5.93,7.35s5.93-3.08,5.93-7.35Z"/>
      <path d="M86.11,22.54h12.33l6.4,43.53,5.93-43.53h12.69l5.93,43.53,6.4-43.53h11.15l-9.13,60.49h-15.18l-5.69-37.24-5.69,37.24h-16.01l-9.13-60.49Z"/>
      <path d="M189.18,41.04v14.47h-24.67v10.2c0,5.34,2.13,7.35,6.29,7.35s6.29-2.02,6.29-7.35v-2.25h12.1v1.07c0,12.57-6.52,19.69-18.62,19.69s-18.62-7.12-18.62-19.69v-23.48c0-12.57,6.52-19.69,18.62-19.69s18.62,7.12,18.62,19.69ZM176.84,45.54v-5.69c0-5.34-2.25-7.35-6.17-7.35s-6.17,2.02-6.17,7.35v5.69h12.33Z"/>
      <path d="M223.57,22.06v12.22c-.95-.24-2.14-.36-3.2-.36-7,0-10.67,4.86-10.67,14.23v34.87h-12.57V22.54h10.91l.24,10.2c1.66-7.59,5.57-11.39,11.74-11.39,1.54,0,2.61.24,3.56.71Z"/>
      <path d="M232.82,0h39.26v4.98h-33.68v34.04h27.87v4.98h-27.87v39.02h-5.57V0Z"/>
      <path d="M283.58,0h5.46v83.02h-5.46V0Z"/>
      <path d="M345.14,44.48v9.25h-36.17v9.61c0,10.32,5.46,16.01,15.42,16.01s15.18-5.81,15.3-14.94h5.46c-.59,12.69-7.95,19.81-20.76,19.81s-20.88-7.71-20.88-21.35v-18.38c0-13.64,7.47-21.35,20.88-21.35s20.76,7.71,20.76,21.35ZM339.69,49.1v-5.1c0-10.44-5.22-16.01-15.3-16.01s-15.42,5.69-15.42,16.01v5.1h30.72Z"/>
      <path d="M374.08,53.02l-18.74-28.7h5.93l16.13,24.91,16.01-24.91h5.57l-18.62,28.7,19.45,30.01h-6.05l-16.72-26.33-16.84,26.33h-5.69l19.57-30.01Z"/>
    </g>
  </g>
  
  <!-- Underfloor Power text -->
  <text x="600" y="350" text-anchor="middle" fill="white" font-family="Arial, sans-serif" font-size="42" font-weight="300">
    Underfloor Power
  </text>
  
  <!-- Tagline -->
  <text x="600" y="400" text-anchor="middle" fill="#f0ea45" font-family="Arial, sans-serif" font-size="28" font-weight="600" filter="url(#glow)">
    Fast • Flexible • Future-Ready
  </text>
  
  <!-- Made in UK badge -->
  <g transform="translate(450, 480)">
    <rect x="0" y="0" width="300" height="60" rx="30" fill="#1e293b" stroke="#f0ea45" stroke-width="2"/>
    <text x="150" y="38" text-anchor="middle" fill="#f0ea45" font-family="Arial, sans-serif" font-size="18" font-weight="600">
      Made in Durham, UK since 1980
    </text>
  </g>
  
  <!-- Apex Wiring Solutions at bottom -->
  <text x="600" y="580" text-anchor="middle" fill="#94a3b8" font-family="Arial, sans-serif" font-size="24">
    by Apex Wiring Solutions
  </text>
</svg>