<?xml version="1.0" encoding="UTF-8"?>
<svg id="Layer_2" data-name="Layer 2" xmlns="http://www.w3.org/2000/svg" viewBox="0 0 74.31 112.26">
  <defs>
    <style>
      .cls-1 {
        fill: #1d1d1b;
      }
    </style>
  </defs>
  <g id="Layer_1-2" data-name="Layer 1">
    <rect class="cls-1" x=".03" y="109.15" width="74.28" height="3.1"/>
    <rect class="cls-1" x=".03" width="74.28" height="3.1"/>
    <path class="cls-1" d="M3.7,42H.28L6.65,8.7h5.38l6.38,33.31h-3.71l-1.29-6.71H4.99l-1.29,6.71ZM12.89,32.11l-3.76-19.22-3.66,19.22h7.42Z"/>
    <path class="cls-1" d="M34.23,10.81c1.32,1.72,1.97,3.86,1.83,6.02v4c0,5.36-2.59,8.04-7.76,8.04h-3.28v13.13h-3.71V8.7h7.28c2.1-.17,4.17.61,5.64,2.12ZM31.39,24.49c.76-.97,1.11-2.2,1-3.43v-4.43c.09-1.22-.22-2.43-.9-3.45-.74-.8-1.81-1.22-2.9-1.12h-3.57v13.46h3.28c1.13.09,2.25-.28,3.09-1.05Z"/>
    <path class="cls-1" d="M50.95,26.78h-8.14v11.85h9.99v3.38h-13.7V8.7h13.7v3.38h-9.99v11.37h8.14v3.33Z"/>
    <path class="cls-1" d="M58.94,42h-3.52l6.71-17.18-6.28-16.13h3.85l5.14,13.32,5.19-13.32h3.47l-6.23,16.13,6.66,17.18h-3.9l-5.52-14.37-5.57,14.37Z"/>
    <path class="cls-1" d="M4.99,77.74L0,50.02h.87l4.83,26.54,4.79-26.38h1.07l4.52,26.22,4.67-26.38h.79l-4.91,27.73h-1.15l-4.48-25.67-4.75,25.67h-1.27Z"/>
    <path class="cls-1" d="M25.47,77.74h-.87v-27.73h.87v27.73Z"/>
    <path class="cls-1" d="M39.85,56.23v2.49c.09,1.41-.29,2.82-1.07,4-.83,1.02-2.02,1.67-3.33,1.82,2.93.45,4.4,2.3,4.4,5.54v4.36c-.09,1.15.17,2.29.75,3.29h-.95c-.52-1.01-.75-2.15-.67-3.29v-4.36c.17-1.51-.41-3.01-1.54-4.02-1.35-.84-2.93-1.24-4.52-1.13h-3.41v12.8h-.87v-27.73h5.51c3.8,0,5.7,2.07,5.7,6.22ZM37.49,63.01c1.13-1.07,1.68-2.62,1.49-4.16v-2.53c.1-1.45-.31-2.88-1.15-4.06-.96-1.02-2.33-1.54-3.72-1.41h-4.6v13.27h3.41c1.6.12,3.2-.27,4.57-1.11Z"/>
    <path class="cls-1" d="M44.56,77.74h-.87v-27.73h.87v27.73Z"/>
    <path class="cls-1" d="M47.73,77.74v-27.73h1.23l9.74,25.95v-25.95h.83v27.73h-1.07l-9.9-26.46v26.46h-.83Z"/>
    <path class="cls-1" d="M72.87,51.76c1,1.5,1.49,3.27,1.41,5.07v1.82h-.87v-1.86c.07-1.58-.33-3.14-1.17-4.48-.87-1.18-2.28-1.82-3.74-1.7-1.46-.12-2.89.52-3.76,1.7-.85,1.33-1.26,2.9-1.19,4.48v14.18c-.08,1.57.33,3.13,1.17,4.46.89,1.18,2.32,1.81,3.78,1.68,1.45.12,2.87-.51,3.74-1.68.84-1.33,1.25-2.89,1.17-4.46v-6.3h-4.32v-.79h5.19v7.05c.08,1.8-.41,3.57-1.41,5.07-2.21,2.43-5.98,2.6-8.41.39-.14-.12-.27-.25-.39-.39-1-1.5-1.49-3.27-1.41-5.07v-14.1c-.08-1.8.41-3.57,1.41-5.07,2.22-2.43,5.98-2.6,8.41-.38.13.12.26.25.38.38Z"/>
    <path class="cls-1" d="M6.49,86.96c.62.93.93,2.04.88,3.16v.33h-.55v-.35c.04-.98-.21-1.94-.73-2.77-.54-.74-1.42-1.14-2.33-1.07-.92-.08-1.81.32-2.36,1.05-.52.82-.77,1.79-.73,2.76-.01.63.14,1.25.44,1.81.28.51.66.96,1.1,1.33.44.37,1.02.79,1.74,1.28.63.41,1.24.85,1.82,1.33.47.4.86.88,1.15,1.42.32.61.48,1.28.46,1.97.06,1.13-.26,2.24-.89,3.17-1.47,1.54-3.9,1.59-5.44.13-.04-.04-.09-.08-.13-.13-.63-.93-.95-2.05-.89-3.17v-.85h.53v.88c-.05.98.21,1.95.75,2.77,1.22,1.32,3.27,1.4,4.59.18.06-.06.12-.12.18-.18.54-.82.8-1.79.75-2.77.02-.62-.14-1.24-.44-1.78-.28-.49-.65-.93-1.08-1.29-.56-.45-1.14-.88-1.74-1.27-.63-.42-1.25-.87-1.83-1.35-.47-.4-.86-.89-1.15-1.43-.33-.62-.49-1.31-.48-2.01-.06-1.12.25-2.24.89-3.16.67-.8,1.68-1.24,2.72-1.18,1.06-.09,2.1.37,2.76,1.2Z"/>
    <path class="cls-1" d="M10.24,86.98c.67-.85,1.72-1.31,2.8-1.23,1.09-.09,2.16.37,2.85,1.23.65.94.97,2.07.92,3.21v8.93c.05,1.14-.27,2.27-.92,3.21-.69.86-1.75,1.32-2.85,1.23-1.08.08-2.13-.38-2.8-1.23-.65-.94-.97-2.07-.92-3.21v-8.93c-.05-1.14.27-2.27.92-3.21ZM10.63,101.98c.56.75,1.47,1.16,2.41,1.08.94.07,1.86-.33,2.43-1.08.55-.84.82-1.83.78-2.83v-8.98c.05-1-.23-2-.78-2.83-.58-.75-1.49-1.15-2.43-1.08-.93-.08-1.84.33-2.41,1.08-.54.84-.8,1.83-.75,2.83v8.98c-.05,1,.22,1.99.75,2.83Z"/>
    <path class="cls-1" d="M18.78,85.88h.55v17.03h5.89v.53h-6.45v-17.56Z"/>
    <path class="cls-1" d="M28.38,101.97c1.11,1.3,3.06,1.46,4.36.36.13-.11.25-.23.36-.36.52-.86.77-1.85.73-2.85v-13.24h.53v13.22c.05,1.14-.25,2.26-.87,3.22-1.34,1.52-3.66,1.66-5.18.32-.11-.1-.22-.21-.32-.32-.62-.96-.93-2.08-.88-3.22v-13.22h.55v13.24c-.05,1,.21,1.99.73,2.85Z"/>
    <path class="cls-1" d="M39.62,86.41h-3.81v-.53h8.2v.53h-3.84v17.03h-.55v-17.03Z"/>
    <path class="cls-1" d="M46.09,103.44h-.55v-17.56h.55v17.56Z"/>
    <path class="cls-1" d="M48.99,86.98c.67-.85,1.72-1.31,2.8-1.23,1.09-.09,2.16.37,2.85,1.23.65.94.97,2.07.92,3.21v8.93c.05,1.14-.27,2.27-.92,3.21-.69.86-1.75,1.32-2.85,1.23-1.08.08-2.13-.38-2.8-1.23-.65-.94-.97-2.07-.92-3.21v-8.93c-.05-1.14.27-2.27.92-3.21ZM49.38,101.98c.56.75,1.47,1.16,2.41,1.08.94.07,1.86-.33,2.43-1.08.55-.84.82-1.83.78-2.83v-8.98c.05-1-.23-2-.78-2.83-.58-.75-1.49-1.15-2.43-1.08-.93-.08-1.84.33-2.41,1.08-.54.84-.8,1.83-.75,2.83v8.98c-.05,1,.22,1.99.75,2.83Z"/>
    <path class="cls-1" d="M57.53,103.44v-17.56h.78l6.17,16.43v-16.43h.53v17.56h-.68l-6.27-16.76v16.76h-.53Z"/>
    <path class="cls-1" d="M73.4,86.96c.62.93.93,2.04.88,3.16v.33h-.55v-.35c.04-.98-.21-1.94-.73-2.77-.54-.74-1.42-1.14-2.33-1.07-.92-.08-1.81.32-2.36,1.05-.52.82-.77,1.79-.73,2.76-.01.63.14,1.25.44,1.81.28.51.66.96,1.1,1.33.44.37,1.02.79,1.74,1.28.63.41,1.24.85,1.82,1.33.47.4.86.88,1.15,1.42.32.61.48,1.28.46,1.97.06,1.13-.26,2.24-.89,3.17-1.47,1.54-3.9,1.59-5.44.13-.04-.04-.09-.08-.13-.13-.63-.93-.95-2.05-.89-3.17v-.85h.53v.88c-.05.98.21,1.95.75,2.77,1.22,1.32,3.27,1.4,4.59.18.06-.06.12-.12.18-.18.54-.82.8-1.79.75-2.77.02-.62-.14-1.24-.44-1.78-.28-.49-.65-.93-1.08-1.29-.56-.45-1.14-.88-1.74-1.27-.63-.42-1.25-.87-1.83-1.35-.47-.4-.86-.89-1.15-1.43-.33-.62-.49-1.31-.48-2.01-.06-1.12.25-2.24.89-3.16.67-.8,1.68-1.24,2.72-1.18,1.06-.09,2.1.37,2.76,1.2Z"/>
  </g>
</svg>